<!-- Generated by IcoMoon.io -->
<svg version="1.1" xmlns="http://www.w3.org/2000/svg" width="14" height="14" viewBox="0 0 14 14">
<title>attachment</title>
<path d="M9.103 4.471l-0.888-0.888-4.441 4.44c-0.736 0.735-0.736 1.928 0 2.664s1.929 0.735 2.664 0l5.329-5.328c1.227-1.226 1.227-3.214 0-4.44s-3.214-1.226-4.44 0l-5.595 5.594c-0.004 0.004-0.008 0.008-0.012 0.012-1.71 1.71-1.71 4.482 0 6.192s4.483 1.71 6.193 0c0.004-0.004 0.007-0.008 0.011-0.012l0 0 3.819-3.818-0.888-0.888-3.819 3.818c-0.004 0.004-0.008 0.008-0.012 0.012-1.218 1.218-3.199 1.218-4.417 0s-1.218-3.198 0-4.416c0.004-0.004 0.008-0.008 0.012-0.012l-0.001-0.001 5.596-5.594c0.734-0.735 1.93-0.735 2.664 0s0.734 1.93 0 2.664l-5.329 5.328c-0.245 0.245-0.643 0.245-0.888 0s-0.245-0.643 0-0.888l4.441-4.44z"></path>
</svg>
