<!-- Generated by IcoMoon.io -->
<svg version="1.1" xmlns="http://www.w3.org/2000/svg" width="14" height="14" viewBox="0 0 14 14">
<title>blocked</title>
<path d="M11.95 2.050c-1.322-1.322-3.080-2.050-4.95-2.050s-3.628 0.728-4.95 2.050c-1.322 1.322-2.050 3.080-2.050 4.95s0.728 3.628 2.050 4.95c1.322 1.322 3.080 2.050 4.95 2.050s3.628-0.728 4.95-2.050c1.322-1.322 2.050-3.080 2.050-4.95s-0.728-3.628-2.050-4.95zM12.25 7c0 1.132-0.36 2.182-0.972 3.040l-7.318-7.318c0.858-0.612 1.908-0.972 3.040-0.972 2.895 0 5.25 2.355 5.25 5.25zM1.75 7c0-1.132 0.36-2.182 0.972-3.040l7.318 7.318c-0.859 0.612-1.908 0.972-3.040 0.972-2.895 0-5.25-2.355-5.25-5.25z"></path>
</svg>
