<!-- Generated by IcoMoon.io -->
<svg version="1.1" xmlns="http://www.w3.org/2000/svg" width="16" height="14" viewBox="0 0 16 14">
<title>books</title>
<path d="M3.063 1.75h-2.625c-0.241 0-0.438 0.197-0.438 0.438v9.625c0 0.241 0.197 0.438 0.438 0.438h2.625c0.241 0 0.438-0.197 0.438-0.438v-9.625c0-0.241-0.197-0.438-0.438-0.438zM2.625 4.375h-1.75v-0.875h1.75v0.875z"></path>
<path d="M7.438 1.75h-2.625c-0.241 0-0.438 0.197-0.438 0.438v9.625c0 0.241 0.197 0.438 0.438 0.438h2.625c0.241 0 0.438-0.197 0.438-0.438v-9.625c0-0.241-0.197-0.438-0.438-0.438zM7 4.375h-1.75v-0.875h1.75v0.875z"></path>
<path d="M10.46 2.426l-2.344 1.181c-0.215 0.108-0.302 0.373-0.194 0.588l3.937 7.814c0.108 0.215 0.373 0.302 0.588 0.194l2.344-1.181c0.215-0.108 0.302-0.373 0.194-0.588l-3.937-7.814c-0.108-0.215-0.373-0.302-0.588-0.194z"></path>
<path d="M12.688 11.813c0 0.242-0.196 0.438-0.438 0.438s-0.438-0.196-0.438-0.438c0-0.242 0.196-0.438 0.438-0.438s0.438 0.196 0.438 0.438z"></path>
</svg>
