<!-- Generated by IcoMoon.io -->
<svg version="1.1" xmlns="http://www.w3.org/2000/svg" width="16" height="14" viewBox="0 0 16 14">
<title>bubbles4</title>
<path d="M6.563 1.75c-0.693 0-1.361 0.109-1.988 0.323-0.587 0.201-1.109 0.484-1.552 0.843-0.821 0.664-1.273 1.515-1.273 2.395 0 0.492 0.138 0.97 0.409 1.42 0.283 0.469 0.71 0.9 1.234 1.244 0.416 0.273 0.696 0.71 0.771 1.202 0.012 0.082 0.022 0.164 0.030 0.247 0.037-0.034 0.074-0.070 0.111-0.107 0.33-0.329 0.775-0.51 1.235-0.51 0.073 0 0.147 0.005 0.22 0.014 0.265 0.034 0.535 0.051 0.803 0.051 0.693 0 1.361-0.109 1.988-0.323 0.587-0.201 1.109-0.484 1.552-0.843 0.821-0.664 1.273-1.515 1.273-2.395s-0.452-1.731-1.273-2.395c-0.443-0.358-0.965-0.642-1.552-0.843-0.626-0.214-1.295-0.323-1.988-0.323zM6.563 0v0c3.624 0 6.563 2.378 6.563 5.311s-2.938 5.311-6.563 5.311c-0.348 0-0.69-0.022-1.023-0.064-1.41 1.404-3.038 1.656-4.664 1.693v-0.344c0.878-0.429 1.586-1.209 1.586-2.102 0-0.124-0.010-0.247-0.028-0.366-1.484-0.974-2.433-2.461-2.433-4.127 0-2.933 2.938-5.311 6.563-5.311zM13.617 11.904c0 0.765 0.496 1.434 1.258 1.802v0.295c-1.41-0.032-2.704-0.247-3.926-1.451-0.289 0.036-0.585 0.055-0.887 0.055-1.305 0-2.508-0.352-3.467-0.944 1.978-0.007 3.845-0.641 5.261-1.787 0.714-0.578 1.277-1.255 1.674-2.015 0.421-0.805 0.634-1.662 0.634-2.549 0-0.143-0.006-0.285-0.017-0.426 0.992 0.819 1.603 1.936 1.603 3.167 0 1.429-0.822 2.703-2.109 3.538-0.016 0.102-0.024 0.207-0.024 0.314z"></path>
</svg>
