<!-- Generated by IcoMoon.io -->
<svg version="1.1" xmlns="http://www.w3.org/2000/svg" width="14" height="14" viewBox="0 0 14 14">
<title>clipboard</title>
<path d="M12.688 1.75h-3.938c0-0.966-0.783-1.75-1.75-1.75s-1.75 0.784-1.75 1.75h-3.938c-0.242 0-0.438 0.196-0.438 0.438v11.375c0 0.242 0.196 0.438 0.438 0.438h11.375c0.242 0 0.438-0.196 0.438-0.438v-11.375c0-0.242-0.196-0.438-0.438-0.438zM7 0.875c0.483 0 0.875 0.392 0.875 0.875s-0.392 0.875-0.875 0.875c-0.483 0-0.875-0.392-0.875-0.875s0.392-0.875 0.875-0.875zM12.25 13.125h-10.5v-10.5h1.75v1.313c0 0.242 0.196 0.438 0.438 0.438h6.125c0.242 0 0.438-0.196 0.438-0.438v-1.313h1.75v10.5z"></path>
<path d="M6.125 11.737l-2.806-3.244 0.8-0.8 2.006 1.569 3.756-3.319 0.8 0.8z"></path>
</svg>
