<!-- Generated by IcoMoon.io -->
<svg version="1.1" xmlns="http://www.w3.org/2000/svg" width="14" height="14" viewBox="0 0 14 14">
<title>cross</title>
<path d="M13.872 11.247c-0-0-0-0-0-0l-4.247-4.247 4.247-4.247c0-0 0-0 0-0 0.046-0.046 0.079-0.099 0.1-0.156 0.058-0.156 0.025-0.337-0.1-0.463l-2.006-2.006c-0.125-0.125-0.307-0.158-0.462-0.1-0.057 0.021-0.11 0.054-0.156 0.1 0 0-0 0-0 0l-4.247 4.247-4.247-4.247c-0-0-0-0-0-0-0.046-0.046-0.099-0.079-0.156-0.1-0.156-0.058-0.337-0.025-0.463 0.1l-2.006 2.006c-0.125 0.125-0.158 0.307-0.1 0.462 0.021 0.057 0.054 0.11 0.1 0.156 0 0 0 0 0 0l4.247 4.247-4.247 4.247c-0 0-0 0-0 0-0.046 0.046-0.079 0.099-0.1 0.156-0.058 0.156-0.025 0.337 0.1 0.463l2.006 2.006c0.125 0.125 0.307 0.158 0.463 0.1 0.057-0.021 0.11-0.054 0.156-0.1 0-0 0-0 0-0l4.247-4.247 4.247 4.247c0 0 0 0 0 0 0.046 0.046 0.099 0.079 0.156 0.1 0.156 0.058 0.337 0.025 0.462-0.1l2.006-2.006c0.125-0.125 0.158-0.307 0.1-0.463-0.021-0.057-0.054-0.11-0.1-0.156z"></path>
</svg>
