<!-- Generated by IcoMoon.io -->
<svg version="1.1" xmlns="http://www.w3.org/2000/svg" width="14" height="14" viewBox="0 0 14 14">
<title>eye</title>
<path d="M7 2.625c-3.053 0-5.7 1.778-7 4.375 1.3 2.597 3.947 4.375 7 4.375s5.699-1.778 7-4.375c-1.3-2.597-3.947-4.375-7-4.375zM10.451 4.945c0.823 0.525 1.52 1.227 2.043 2.055-0.524 0.827-1.221 1.53-2.043 2.055-1.034 0.659-2.227 1.008-3.451 1.008s-2.418-0.348-3.451-1.008c-0.822-0.525-1.519-1.227-2.043-2.055 0.524-0.827 1.221-1.53 2.043-2.055 0.054-0.034 0.108-0.067 0.162-0.1-0.136 0.374-0.211 0.777-0.211 1.198 0 1.933 1.567 3.5 3.5 3.5s3.5-1.567 3.5-3.5c0-0.421-0.075-0.824-0.211-1.198 0.054 0.033 0.109 0.066 0.162 0.1v0zM7 5.688c0 0.725-0.588 1.313-1.313 1.313s-1.313-0.588-1.313-1.313 0.588-1.313 1.313-1.313 1.313 0.588 1.313 1.313z"></path>
</svg>
