<!-- Generated by IcoMoon.io -->
<svg version="1.1" xmlns="http://www.w3.org/2000/svg" width="14" height="14" viewBox="0 0 14 14">
<title>file-zip</title>
<path d="M12.548 3.132c-0.304-0.414-0.727-0.898-1.192-1.363s-0.949-0.888-1.363-1.192c-0.705-0.517-1.047-0.577-1.243-0.577h-6.781c-0.603 0-1.094 0.491-1.094 1.094v11.813c0 0.603 0.491 1.094 1.094 1.094h10.063c0.603 0 1.094-0.491 1.094-1.094v-8.531c0-0.196-0.060-0.538-0.577-1.243v0 0zM10.738 2.387c0.42 0.42 0.749 0.798 0.992 1.113h-2.105v-2.105c0.314 0.243 0.693 0.573 1.113 0.992v0 0zM12.25 12.906c0 0.119-0.1 0.219-0.219 0.219h-10.063c-0.119 0-0.219-0.1-0.219-0.219v-11.813c0-0.119 0.1-0.219 0.219-0.219 0 0 6.781-0 6.781 0v3.063c0 0.242 0.196 0.438 0.438 0.438h3.063v8.531z"></path>
<path d="M3.5 0.875h1.75v0.875h-1.75v-0.875z"></path>
<path d="M5.25 1.75h1.75v0.875h-1.75v-0.875z"></path>
<path d="M3.5 2.625h1.75v0.875h-1.75v-0.875z"></path>
<path d="M5.25 3.5h1.75v0.875h-1.75v-0.875z"></path>
<path d="M3.5 4.375h1.75v0.875h-1.75v-0.875z"></path>
<path d="M5.25 5.25h1.75v0.875h-1.75v-0.875z"></path>
<path d="M3.5 6.125h1.75v0.875h-1.75v-0.875z"></path>
<path d="M5.25 7h1.75v0.875h-1.75v-0.875z"></path>
<path d="M3.5 11.594c0 0.361 0.295 0.656 0.656 0.656h2.188c0.361 0 0.656-0.295 0.656-0.656v-2.188c0-0.361-0.295-0.656-0.656-0.656h-1.094v-0.875h-1.75v3.719zM6.125 10.5v0.875h-1.75v-0.875h1.75z"></path>
</svg>
