<!-- Generated by IcoMoon.io -->
<svg version="1.1" xmlns="http://www.w3.org/2000/svg" width="14" height="14" viewBox="0 0 14 14">
<title>github</title>
<path d="M7 0.173c-3.866 0-7 3.134-7 7 0 3.093 2.006 5.717 4.787 6.642 0.35 0.065 0.478-0.152 0.478-0.337 0-0.167-0.007-0.718-0.010-1.303-1.948 0.424-2.358-0.826-2.358-0.826-0.318-0.809-0.777-1.024-0.777-1.024-0.635-0.434 0.048-0.426 0.048-0.426 0.703 0.049 1.073 0.721 1.073 0.721 0.624 1.070 1.638 0.761 2.037 0.582 0.063-0.452 0.244-0.761 0.444-0.936-1.555-0.177-3.189-0.777-3.189-3.459 0-0.764 0.273-1.389 0.721-1.879-0.073-0.176-0.312-0.888 0.068-1.853 0 0 0.588-0.188 1.926 0.718 0.558-0.155 1.157-0.233 1.752-0.236 0.595 0.003 1.194 0.080 1.753 0.236 1.336-0.906 1.923-0.718 1.923-0.718 0.381 0.964 0.142 1.676 0.069 1.853 0.449 0.49 0.72 1.115 0.72 1.879 0 2.689-1.638 3.281-3.196 3.454 0.251 0.217 0.475 0.643 0.475 1.296 0 0.937-0.008 1.69-0.008 1.921 0 0.186 0.126 0.405 0.481 0.336 2.78-0.927 4.783-3.55 4.783-6.641 0-3.866-3.134-7-7-7z"></path>
</svg>
