<!-- Generated by IcoMoon.io -->
<svg version="1.1" xmlns="http://www.w3.org/2000/svg" width="14" height="14" viewBox="0 0 14 14">
<title>google-plus3</title>
<path d="M7 0c-3.866 0-7 3.134-7 7s3.134 7 7 7 7-3.134 7-7-3.134-7-7-7zM5.25 10.5c-1.936 0-3.5-1.564-3.5-3.5s1.564-3.5 3.5-3.5c0.946 0 1.736 0.345 2.346 0.916l-0.952 0.913c-0.26-0.249-0.714-0.539-1.395-0.539-1.195 0-2.171 0.99-2.171 2.209s0.976 2.209 2.171 2.209c1.386 0 1.906-0.995 1.985-1.509h-1.985v-1.2h3.306c0.030 0.175 0.055 0.35 0.055 0.58 0 2.002-1.34 3.421-3.361 3.421zM11.375 7v0.875h-0.875v-0.875h-0.875v-0.875h0.875v-0.875h0.875v0.875h0.875v0.875h-0.875z"></path>
</svg>
