<!-- Generated by IcoMoon.io -->
<svg version="1.1" xmlns="http://www.w3.org/2000/svg" width="14" height="14" viewBox="0 0 14 14">
<title>headphones</title>
<path d="M3.938 7.875h-0.875v6.125h0.875c0.241 0 0.438-0.197 0.438-0.438v-5.25c0-0.241-0.197-0.438-0.438-0.438z"></path>
<path d="M10.063 7.875c-0.241 0-0.438 0.197-0.438 0.438v5.25c0 0.241 0.197 0.438 0.438 0.438h0.875v-6.125h-0.875z"></path>
<path d="M14 7c0-3.866-3.134-7-7-7s-7 3.134-7 7c0 0.84 0.148 1.645 0.419 2.39-0.266 0.454-0.419 0.983-0.419 1.547 0 1.543 1.141 2.819 2.625 3.031v-6.062c-0.436 0.062-0.843 0.217-1.2 0.443-0.074-0.365-0.113-0.743-0.113-1.13 0-3.141 2.546-5.688 5.688-5.688s5.688 2.546 5.688 5.688c0 0.387-0.039 0.765-0.112 1.131-0.357-0.226-0.764-0.381-1.2-0.443v6.063c1.484-0.212 2.625-1.489 2.625-3.031 0-0.564-0.153-1.093-0.419-1.547 0.271-0.746 0.419-1.551 0.419-2.391z"></path>
</svg>
