<!-- Generated by IcoMoon.io -->
<svg version="1.1" xmlns="http://www.w3.org/2000/svg" width="14" height="14" viewBox="0 0 14 14">
<title>image</title>
<path d="M13.123 1.75c0.001 0 0.001 0.001 0.002 0.002v10.497c-0 0.001-0.001 0.001-0.002 0.002h-12.247c-0.001-0-0.001-0.001-0.002-0.002v-10.497c0-0.001 0.001-0.001 0.002-0.002h12.247zM13.125 0.875h-12.25c-0.481 0-0.875 0.394-0.875 0.875v10.5c0 0.481 0.394 0.875 0.875 0.875h12.25c0.481 0 0.875-0.394 0.875-0.875v-10.5c0-0.481-0.394-0.875-0.875-0.875v0z"></path>
<path d="M11.375 3.938c0 0.725-0.588 1.313-1.313 1.313s-1.313-0.588-1.313-1.313 0.588-1.313 1.313-1.313 1.313 0.588 1.313 1.313z"></path>
<path d="M12.25 11.375h-10.5v-1.75l3.063-5.25 3.5 4.375h0.875l3.063-2.625z"></path>
</svg>
