<!-- Generated by IcoMoon.io -->
<svg version="1.1" xmlns="http://www.w3.org/2000/svg" width="14" height="14" viewBox="0 0 14 14">
<title>loop2</title>
<path d="M12.164 2.274c-1.28-1.397-3.119-2.274-5.164-2.274-3.866 0-7 3.134-7 7h1.313c0-3.141 2.546-5.688 5.688-5.688 1.682 0 3.193 0.73 4.234 1.891l-2.047 2.047h4.813v-4.813l-1.836 1.836z"></path>
<path d="M12.688 7c0 3.141-2.546 5.688-5.688 5.688-1.682 0-3.193-0.73-4.234-1.891l2.047-2.047h-4.813v4.813l1.836-1.836c1.28 1.397 3.119 2.274 5.164 2.274 3.866 0 7-3.134 7-7h-1.313z"></path>
</svg>
