<!-- Generated by IcoMoon.io -->
<svg version="1.1" xmlns="http://www.w3.org/2000/svg" width="14" height="14" viewBox="0 0 14 14">
<title>magic-wand</title>
<path d="M3.5 2.625l-1.75-1.75h-0.875v0.875l1.75 1.75zM4.375 0h0.875v1.75h-0.875zM7.875 4.375h1.75v0.875h-1.75zM8.75 1.75v-0.875h-0.875l-1.75 1.75 0.875 0.875zM0 4.375h1.75v0.875h-1.75zM4.375 7.875h0.875v1.75h-0.875zM0.875 7.875v0.875h0.875l1.75-1.75-0.875-0.875zM13.809 12.059l-8.697-8.697c-0.255-0.255-0.673-0.255-0.928 0l-0.822 0.822c-0.255 0.255-0.255 0.673 0 0.928l8.697 8.697c0.255 0.255 0.673 0.255 0.928 0l0.822-0.822c0.255-0.255 0.255-0.673 0-0.928zM6.563 7.438l-2.625-2.625 0.875-0.875 2.625 2.625-0.875 0.875z"></path>
</svg>
