<!-- Generated by IcoMoon.io -->
<svg version="1.1" xmlns="http://www.w3.org/2000/svg" width="14" height="14" viewBox="0 0 14 14">
<title>onedrive</title>
<path d="M4.797 11.326c-0.824-0.206-1.283-0.861-1.285-1.833-0-0.311 0.022-0.46 0.1-0.659 0.19-0.49 0.694-0.86 1.356-0.996 0.33-0.068 0.431-0.14 0.431-0.309 0-0.053 0.039-0.21 0.087-0.349 0.218-0.633 0.621-1.161 1.052-1.377 0.451-0.226 0.679-0.277 1.224-0.274 0.775 0.004 1.161 0.172 1.702 0.74l0.297 0.312 0.266-0.092c1.289-0.446 2.574 0.313 2.678 1.583l0.028 0.347 0.254 0.091c0.725 0.26 1.066 0.805 1.004 1.607-0.040 0.524-0.286 0.943-0.674 1.151l-0.183 0.098-4.058 0.008c-3.118 0.006-4.11-0.005-4.281-0.048v0zM1.411 10.746c-0.495-0.124-1.019-0.586-1.264-1.114-0.139-0.299-0.147-0.344-0.147-0.873 0-0.504 0.012-0.585 0.123-0.835 0.234-0.527 0.682-0.909 1.245-1.058 0.119-0.032 0.23-0.082 0.248-0.112s0.037-0.194 0.044-0.364c0.039-1.055 0.694-1.985 1.609-2.284 0.494-0.161 1.143-0.176 1.68 0.051 0.17 0.072 0.151 0.088 0.512-0.412 0.213-0.295 0.617-0.608 0.969-0.795 0.381-0.202 0.776-0.295 1.25-0.294 1.323 0.003 2.463 0.878 2.885 2.213 0.135 0.426 0.128 0.546-0.031 0.549-0.069 0.002-0.268 0.042-0.441 0.090l-0.315 0.087-0.288-0.304c-0.812-0.858-2.136-1.043-3.262-0.457-0.45 0.234-0.811 0.571-1.084 1.009-0.195 0.313-0.443 0.896-0.443 1.040 0 0.103-0.079 0.154-0.415 0.27-1.040 0.361-1.648 1.193-1.647 2.259 0 0.388 0.095 0.862 0.226 1.134 0.049 0.102 0.077 0.2 0.061 0.217-0.040 0.042-1.334 0.028-1.513-0.017v0z"></path>
</svg>
