<!-- Generated by IcoMoon.io -->
<svg version="1.1" xmlns="http://www.w3.org/2000/svg" width="14" height="14" viewBox="0 0 14 14">
<title>scissors</title>
<path d="M12.494 9.293c-0.912-1.425-2.476-2.052-3.493-1.4-0.088 0.056-0.169 0.12-0.243 0.191l-1.086-1.699 2.508-3.937c0.205-0.379 0.281-0.831 0.181-1.285-0.095-0.434-0.335-0.799-0.658-1.056l-0.168-0.107-2.973 4.65-2.973-4.65-0.168 0.107c-0.322 0.257-0.562 0.622-0.658 1.056-0.1 0.454-0.024 0.906 0.181 1.285l2.508 3.937-1.086 1.699c-0.074-0.071-0.155-0.135-0.243-0.191-1.018-0.651-2.582-0.024-3.493 1.4s-0.826 3.107 0.192 3.759c1.018 0.651 2.582 0.024 3.493-1.4l2.246-3.526 2.246 3.526c0.912 1.425 2.476 2.052 3.493 1.4s1.103-2.334 0.192-3.759zM3.211 10.943c-0.41 0.641-0.937 0.953-1.293 1.031-0 0-0 0-0 0-0.116 0.026-0.277 0.041-0.387-0.029-0.122-0.078-0.202-0.284-0.216-0.551-0.022-0.433 0.132-0.941 0.422-1.395 0.41-0.641 0.937-0.953 1.293-1.031 0.116-0.026 0.278-0.041 0.387 0.029 0.122 0.078 0.202 0.284 0.216 0.551 0.022 0.433-0.132 0.941-0.422 1.395zM6.563 7c-0.242 0-0.438-0.196-0.438-0.438s0.196-0.438 0.438-0.438 0.438 0.196 0.438 0.438-0.196 0.438-0.438 0.438zM11.81 11.395c-0.014 0.267-0.094 0.473-0.216 0.551-0.11 0.070-0.271 0.055-0.387 0.029 0 0 0 0-0 0-0.356-0.078-0.883-0.39-1.293-1.031-0.29-0.454-0.444-0.962-0.422-1.395 0.014-0.267 0.094-0.473 0.216-0.551 0.11-0.070 0.271-0.055 0.387-0.029 0.356 0.078 0.882 0.39 1.293 1.031 0.29 0.454 0.444 0.962 0.422 1.395z"></path>
</svg>
