<!-- Generated by IcoMoon.io -->
<svg version="1.1" xmlns="http://www.w3.org/2000/svg" width="14" height="14" viewBox="0 0 14 14">
<title>share2</title>
<path d="M11.813 9.625c-0.617 0-1.175 0.256-1.572 0.668l-5.893-2.946c0.018-0.113 0.028-0.228 0.028-0.346s-0.010-0.233-0.028-0.346l5.893-2.946c0.398 0.411 0.955 0.668 1.572 0.668 1.208 0 2.188-0.979 2.188-2.188s-0.979-2.188-2.188-2.188-2.188 0.979-2.188 2.188c0 0.118 0.010 0.233 0.028 0.346l-5.893 2.946c-0.398-0.411-0.955-0.668-1.572-0.668-1.208 0-2.188 0.979-2.188 2.188s0.979 2.188 2.188 2.188c0.617 0 1.175-0.256 1.572-0.668l5.893 2.946c-0.018 0.113-0.028 0.228-0.028 0.346 0 1.208 0.979 2.188 2.188 2.188s2.188-0.979 2.188-2.188c0-1.208-0.979-2.188-2.188-2.188z"></path>
</svg>
