<!-- Generated by IcoMoon.io -->
<svg version="1.1" xmlns="http://www.w3.org/2000/svg" width="14" height="14" viewBox="0 0 14 14">
<title>shuffle</title>
<path d="M10.5 9.625h-1.388l-2.188-2.188 2.188-2.188h1.388v2.188l3.063-3.063-3.063-3.063v2.188h-1.75c-0.232 0-0.455 0.092-0.619 0.256l-2.444 2.444-2.444-2.444c-0.164-0.164-0.387-0.256-0.619-0.256h-2.625v1.75h2.263l2.188 2.188-2.188 2.188h-2.263v1.75h2.625c0.232 0 0.455-0.092 0.619-0.256l2.444-2.444 2.444 2.444c0.164 0.164 0.387 0.256 0.619 0.256h1.75v2.188l3.063-3.063-3.063-3.063v2.188z"></path>
</svg>
