<!-- Generated by IcoMoon.io -->
<svg version="1.1" xmlns="http://www.w3.org/2000/svg" width="14" height="14" viewBox="0 0 14 14">
<title>sphere</title>
<path d="M6.563 0.875c-3.624 0-6.563 2.938-6.563 6.563s2.938 6.563 6.563 6.563c3.624 0 6.563-2.938 6.563-6.563s-2.938-6.563-6.563-6.563zM10.276 9.625c0.117-0.553 0.191-1.14 0.215-1.75h1.742c-0.046 0.604-0.186 1.191-0.419 1.75h-1.538zM2.849 5.25c-0.117 0.553-0.191 1.14-0.215 1.75h-1.742c0.046-0.604 0.186-1.191 0.419-1.75h1.538zM9.379 5.25c0.131 0.56 0.211 1.146 0.236 1.75h-2.616v-1.75h2.379zM7 4.375v-2.561c0.199 0.058 0.397 0.155 0.591 0.292 0.363 0.256 0.711 0.651 1.005 1.141 0.203 0.339 0.379 0.717 0.526 1.128h-2.123zM4.529 3.247c0.294-0.491 0.642-0.885 1.005-1.141 0.194-0.137 0.392-0.234 0.591-0.292v2.561h-2.123c0.147-0.411 0.323-0.789 0.526-1.128zM6.125 5.25v1.75h-2.616c0.026-0.604 0.105-1.19 0.236-1.75h2.379zM1.311 9.625c-0.233-0.559-0.374-1.146-0.419-1.75h1.742c0.024 0.61 0.098 1.197 0.215 1.75h-1.538zM3.509 7.875h2.616v1.75h-2.379c-0.131-0.56-0.211-1.146-0.236-1.75zM6.125 10.5v2.561c-0.199-0.058-0.397-0.155-0.591-0.292-0.363-0.256-0.711-0.651-1.005-1.141-0.203-0.339-0.379-0.717-0.526-1.128h2.123zM8.596 11.628c-0.294 0.49-0.642 0.885-1.005 1.141-0.194 0.137-0.392 0.234-0.591 0.292v-2.561h2.123c-0.147 0.411-0.323 0.789-0.526 1.128zM7 9.625v-1.75h2.616c-0.026 0.604-0.105 1.19-0.236 1.75h-2.379zM10.491 7c-0.024-0.61-0.098-1.197-0.215-1.75h1.538c0.233 0.559 0.374 1.146 0.419 1.75h-1.742zM11.357 4.375h-1.311c-0.255-0.803-0.607-1.508-1.030-2.070 0.582 0.278 1.108 0.651 1.568 1.111 0.294 0.294 0.552 0.614 0.772 0.959zM2.541 3.416c0.46-0.46 0.987-0.833 1.568-1.111-0.423 0.562-0.775 1.267-1.030 2.070h-1.311c0.221-0.345 0.479-0.666 0.772-0.959zM1.768 10.5h1.311c0.255 0.803 0.607 1.508 1.030 2.070-0.582-0.278-1.108-0.651-1.568-1.111-0.294-0.294-0.552-0.614-0.772-0.959zM10.584 11.459c-0.46 0.46-0.987 0.833-1.568 1.111 0.423-0.562 0.775-1.267 1.030-2.070h1.311c-0.221 0.345-0.479 0.666-0.772 0.959z"></path>
</svg>
