<!-- Generated by IcoMoon.io -->
<svg version="1.1" xmlns="http://www.w3.org/2000/svg" width="14" height="14" viewBox="0 0 14 14">
<title>spinner3</title>
<path d="M7 4.144c-0.451 0-0.816-0.365-0.816-0.816v-2.448c0-0.451 0.365-0.816 0.816-0.816s0.816 0.365 0.816 0.816v2.448c0 0.451-0.365 0.816-0.816 0.816z"></path>
<path d="M7 13.63c-0.282 0-0.51-0.228-0.51-0.51v-2.448c0-0.282 0.228-0.51 0.51-0.51s0.51 0.228 0.51 0.51v2.448c0 0.282-0.228 0.51-0.51 0.51z"></path>
<path d="M5.165 4.585c-0.264 0-0.522-0.137-0.663-0.383l-1.224-2.12c-0.211-0.366-0.086-0.834 0.28-1.045s0.834-0.086 1.045 0.28l1.224 2.12c0.211 0.366 0.086 0.834-0.28 1.045-0.12 0.070-0.252 0.103-0.382 0.103z"></path>
<path d="M10.061 12.759c-0.159 0-0.313-0.082-0.398-0.23l-1.224-2.12c-0.127-0.22-0.052-0.5 0.168-0.627s0.5-0.052 0.627 0.168l1.224 2.12c0.127 0.22 0.052 0.5-0.168 0.627-0.072 0.042-0.151 0.062-0.229 0.062z"></path>
<path d="M3.819 5.878c-0.121 0-0.244-0.031-0.356-0.096l-2.12-1.224c-0.341-0.197-0.459-0.634-0.261-0.975s0.634-0.459 0.975-0.261l2.12 1.224c0.342 0.197 0.459 0.634 0.261 0.975-0.132 0.229-0.372 0.357-0.619 0.357z"></path>
<path d="M12.3 10.468c-0.069 0-0.139-0.018-0.204-0.055l-2.12-1.224c-0.195-0.113-0.262-0.362-0.149-0.557s0.362-0.262 0.557-0.149l2.12 1.224c0.195 0.113 0.262 0.362 0.149 0.557-0.076 0.131-0.213 0.204-0.354 0.204z"></path>
<path d="M3.328 7.663h-2.448c-0.366 0-0.663-0.297-0.663-0.663s0.297-0.663 0.663-0.663h2.448c0.366 0 0.663 0.297 0.663 0.663s-0.297 0.663-0.663 0.663z"></path>
<path d="M13.12 7.408c-0 0 0 0 0 0h-2.448c-0.225-0-0.408-0.183-0.408-0.408s0.183-0.408 0.408-0.408c0 0 0 0 0 0h2.448c0.225 0 0.408 0.183 0.408 0.408s-0.183 0.408-0.408 0.408z"></path>
<path d="M1.7 10.672c-0.212 0-0.417-0.11-0.531-0.306-0.169-0.293-0.069-0.667 0.224-0.836l2.12-1.224c0.293-0.169 0.667-0.069 0.836 0.224s0.069 0.667-0.224 0.836l-2.12 1.224c-0.096 0.056-0.202 0.082-0.305 0.082z"></path>
<path d="M10.181 5.572c-0.141 0-0.278-0.073-0.354-0.204-0.113-0.195-0.046-0.445 0.149-0.557l2.12-1.224c0.195-0.113 0.445-0.046 0.557 0.149s0.046 0.445-0.149 0.557l-2.12 1.224c-0.064 0.037-0.134 0.055-0.204 0.055z"></path>
<path d="M3.939 12.861c-0.095 0-0.192-0.024-0.28-0.075-0.268-0.155-0.36-0.498-0.205-0.766l1.224-2.12c0.155-0.268 0.498-0.36 0.766-0.205s0.36 0.498 0.205 0.766l-1.224 2.12c-0.104 0.18-0.292 0.281-0.486 0.281z"></path>
<path d="M8.836 4.228c-0.069 0-0.139-0.018-0.204-0.055-0.195-0.113-0.262-0.362-0.149-0.557l1.224-2.12c0.113-0.195 0.362-0.262 0.557-0.149s0.262 0.362 0.149 0.557l-1.224 2.12c-0.076 0.131-0.213 0.204-0.354 0.204z"></path>
</svg>
