<!-- Generated by IcoMoon.io -->
<svg version="1.1" xmlns="http://www.w3.org/2000/svg" width="14" height="14" viewBox="0 0 14 14">
<title>spinner9</title>
<path d="M7 0c-3.811 0-6.911 3.046-6.998 6.836 0.081-3.307 2.595-5.961 5.685-5.961 3.141 0 5.688 2.742 5.688 6.125 0 0.725 0.588 1.313 1.313 1.313s1.313-0.588 1.313-1.313c0-3.866-3.134-7-7-7zM7 14c3.811 0 6.911-3.046 6.998-6.836-0.081 3.307-2.595 5.961-5.685 5.961-3.141 0-5.688-2.742-5.688-6.125 0-0.725-0.588-1.313-1.313-1.313s-1.313 0.588-1.313 1.313c0 3.866 3.134 7 7 7z"></path>
</svg>
