<!-- Generated by IcoMoon.io -->
<svg version="1.1" xmlns="http://www.w3.org/2000/svg" width="14" height="14" viewBox="0 0 14 14">
<title>spinner2</title>
<path d="M14 7c-0.017-0.914-0.216-1.825-0.582-2.659-0.365-0.834-0.895-1.589-1.545-2.214s-1.421-1.119-2.256-1.444c-0.834-0.327-1.731-0.483-2.617-0.464-0.886 0.018-1.768 0.21-2.575 0.565-0.807 0.354-1.539 0.868-2.143 1.498s-1.082 1.377-1.397 2.185c-0.316 0.807-0.467 1.675-0.448 2.533 0.018 0.858 0.205 1.711 0.549 2.491 0.343 0.781 0.84 1.488 1.451 2.072s1.333 1.046 2.114 1.35c0.781 0.305 1.619 0.45 2.449 0.431 0.83-0.018 1.654-0.199 2.407-0.532 0.754-0.332 1.437-0.813 2.001-1.403s1.010-1.288 1.302-2.043c0.178-0.457 0.299-0.935 0.363-1.419 0.017 0.001 0.034 0.002 0.051 0.002 0.483 0 0.875-0.392 0.875-0.875 0-0.025-0.001-0.049-0.003-0.073h0.003zM12.61 9.324c-0.321 0.727-0.786 1.386-1.356 1.93s-1.244 0.973-1.972 1.255c-0.728 0.283-1.508 0.416-2.282 0.398s-1.539-0.188-2.24-0.499c-0.701-0.31-1.336-0.759-1.859-1.309s-0.937-1.2-1.208-1.901c-0.272-0.701-0.4-1.452-0.381-2.198s0.182-1.482 0.482-2.156c0.299-0.674 0.731-1.285 1.261-1.788s1.156-0.901 1.83-1.16c0.675-0.261 1.396-0.383 2.114-0.364s1.425 0.177 2.072 0.465c0.647 0.288 1.234 0.704 1.718 1.214s0.864 1.111 1.113 1.759c0.249 0.648 0.366 1.341 0.348 2.030h0.003c-0.002 0.024-0.003 0.048-0.003 0.073 0 0.451 0.342 0.823 0.78 0.87-0.085 0.476-0.226 0.941-0.421 1.381z"></path>
</svg>
