<!-- Generated by IcoMoon.io -->
<svg version="1.1" xmlns="http://www.w3.org/2000/svg" width="14" height="14" viewBox="0 0 14 14">
<title>spinner11</title>
<path d="M14 5.25h-5.25l1.962-1.962c-0.992-0.992-2.31-1.538-3.712-1.538s-2.721 0.546-3.712 1.538c-0.992 0.992-1.538 2.31-1.538 3.712s0.546 2.721 1.538 3.712c0.992 0.992 2.31 1.538 3.712 1.538s2.721-0.546 3.712-1.538c0.083-0.083 0.162-0.168 0.239-0.255l1.317 1.152c-1.283 1.465-3.167 2.391-5.268 2.391-3.866 0-7-3.134-7-7s3.134-7 7-7c1.933 0 3.683 0.784 4.949 2.051l2.051-2.051v5.25z"></path>
</svg>
