<!-- Generated by IcoMoon.io -->
<svg version="1.1" xmlns="http://www.w3.org/2000/svg" width="14" height="14" viewBox="0 0 14 14">
<title>stats-dots</title>
<path d="M1.75 12.25h12.25v1.75h-14v-14h1.75zM3.938 11.375c-0.725 0-1.313-0.588-1.313-1.313s0.588-1.313 1.313-1.313c0.039 0 0.077 0.002 0.115 0.005l1.411-2.351c-0.135-0.206-0.213-0.452-0.213-0.716 0-0.725 0.588-1.313 1.313-1.313s1.313 0.588 1.313 1.313c0 0.264-0.078 0.51-0.213 0.716l1.411 2.351c0.038-0.003 0.076-0.005 0.115-0.005 0.029 0 0.058 0.001 0.087 0.003l2.329-4.076c-0.144-0.211-0.228-0.465-0.228-0.74 0-0.725 0.588-1.313 1.313-1.313s1.313 0.588 1.313 1.313c0 0.725-0.588 1.313-1.313 1.313-0.029 0-0.058-0.001-0.087-0.003l-2.329 4.076c0.144 0.211 0.228 0.465 0.228 0.74 0 0.725-0.588 1.313-1.313 1.313s-1.313-0.588-1.313-1.313c0-0.264 0.078-0.51 0.213-0.716l-1.411-2.351c-0.038 0.003-0.076 0.005-0.115 0.005s-0.077-0.002-0.115-0.005l-1.411 2.351c0.135 0.206 0.213 0.452 0.213 0.716 0 0.725-0.588 1.313-1.313 1.313z"></path>
</svg>
