<!-- Generated by IcoMoon.io -->
<svg version="1.1" xmlns="http://www.w3.org/2000/svg" width="14" height="14" viewBox="0 0 14 14">
<title>stats-bars2</title>
<path d="M3.938 5.25h-2.625c-0.241 0-0.438 0.197-0.438 0.438v7.875c0 0.241 0.197 0.438 0.438 0.438h2.625c0.241 0 0.438-0.197 0.438-0.438v-7.875c0-0.241-0.197-0.438-0.438-0.438zM3.938 13.125h-2.625v-3.5h2.625v3.5zM8.313 3.5h-2.625c-0.241 0-0.438 0.197-0.438 0.438v9.625c0 0.241 0.197 0.438 0.438 0.438h2.625c0.241 0 0.438-0.197 0.438-0.438v-9.625c0-0.241-0.197-0.438-0.438-0.438zM8.313 13.125h-2.625v-4.375h2.625v4.375zM12.688 1.75h-2.625c-0.241 0-0.438 0.197-0.438 0.438v11.375c0 0.241 0.197 0.438 0.438 0.438h2.625c0.241 0 0.438-0.197 0.438-0.438v-11.375c0-0.241-0.197-0.438-0.438-0.438zM12.688 13.125h-2.625v-5.25h2.625v5.25z"></path>
</svg>
