<!-- Generated by IcoMoon.io -->
<svg version="1.1" xmlns="http://www.w3.org/2000/svg" width="14" height="14" viewBox="0 0 14 14">
<title>strikethrough</title>
<path d="M14 7v0.875h-3.206c0.376 0.527 0.581 1.131 0.581 1.75 0 0.969-0.501 1.901-1.375 2.556-0.812 0.609-1.877 0.944-3 0.944s-2.188-0.335-3-0.944c-0.874-0.655-1.375-1.587-1.375-2.556h1.75c0 0.949 1.202 1.75 2.625 1.75s2.625-0.801 2.625-1.75c0-0.949-1.202-1.75-2.625-1.75h-7v-0.875h4.095c-0.032-0.023-0.064-0.045-0.095-0.069-0.874-0.655-1.375-1.587-1.375-2.556s0.501-1.901 1.375-2.556c0.812-0.609 1.877-0.944 3-0.944s2.188 0.335 3 0.944c0.874 0.655 1.375 1.587 1.375 2.556h-1.75c0-0.949-1.202-1.75-2.625-1.75s-2.625 0.801-2.625 1.75c0 0.949 1.202 1.75 2.625 1.75 1.080 0 2.106 0.31 2.905 0.875h4.095z"></path>
</svg>
