<!-- Generated by IcoMoon.io -->
<svg version="1.1" xmlns="http://www.w3.org/2000/svg" width="14" height="14" viewBox="0 0 14 14">
<title>sun</title>
<path d="M7 11.375c0.483 0 0.875 0.392 0.875 0.875v0.875c0 0.483-0.392 0.875-0.875 0.875s-0.875-0.392-0.875-0.875v-0.875c0-0.483 0.392-0.875 0.875-0.875zM7 2.625c-0.483 0-0.875-0.392-0.875-0.875v-0.875c0-0.483 0.392-0.875 0.875-0.875s0.875 0.392 0.875 0.875v0.875c0 0.483-0.392 0.875-0.875 0.875zM13.125 6.125c0.483 0 0.875 0.392 0.875 0.875s-0.392 0.875-0.875 0.875h-0.875c-0.483 0-0.875-0.392-0.875-0.875s0.392-0.875 0.875-0.875h0.875zM2.625 7c0 0.483-0.392 0.875-0.875 0.875h-0.875c-0.483 0-0.875-0.392-0.875-0.875s0.392-0.875 0.875-0.875h0.875c0.483 0 0.875 0.392 0.875 0.875zM11.331 10.094l0.619 0.619c0.342 0.342 0.342 0.896 0 1.237s-0.896 0.342-1.237 0l-0.619-0.619c-0.342-0.342-0.342-0.896 0-1.237s0.896-0.342 1.237 0zM2.669 3.906l-0.619-0.619c-0.342-0.342-0.342-0.896 0-1.237s0.896-0.342 1.237 0l0.619 0.619c0.342 0.342 0.342 0.896 0 1.237s-0.896 0.342-1.237 0zM11.331 3.906c-0.342 0.342-0.896 0.342-1.237 0s-0.342-0.896 0-1.237l0.619-0.619c0.342-0.342 0.896-0.342 1.237 0s0.342 0.896 0 1.237l-0.619 0.619zM2.669 10.094c0.342-0.342 0.896-0.342 1.237 0s0.342 0.896 0 1.237l-0.619 0.619c-0.342 0.342-0.896 0.342-1.237 0s-0.342-0.896 0-1.237l0.619-0.619z"></path>
<path d="M7 3.5c-1.933 0-3.5 1.567-3.5 3.5s1.567 3.5 3.5 3.5c1.933 0 3.5-1.567 3.5-3.5s-1.567-3.5-3.5-3.5zM7 9.188c-1.208 0-2.188-0.979-2.188-2.188s0.979-2.188 2.188-2.188 2.188 0.979 2.188 2.188-0.979 2.188-2.188 2.188z"></path>
</svg>
