<!-- Generated by IcoMoon.io -->
<svg version="1.1" xmlns="http://www.w3.org/2000/svg" width="14" height="14" viewBox="0 0 14 14">
<title>switch</title>
<path d="M8.75 2.004v1.859c0.495 0.216 0.95 0.525 1.344 0.918 0.826 0.826 1.281 1.925 1.281 3.094s-0.455 2.267-1.281 3.094c-0.826 0.826-1.925 1.281-3.094 1.281s-2.267-0.455-3.094-1.281c-0.826-0.826-1.281-1.925-1.281-3.094s0.455-2.267 1.281-3.094c0.393-0.393 0.849-0.702 1.344-0.919v-1.859c-2.53 0.753-4.375 3.096-4.375 5.871 0 3.383 2.742 6.125 6.125 6.125s6.125-2.742 6.125-6.125c0-2.775-1.845-5.118-4.375-5.871zM6.125 0h1.75v7h-1.75z"></path>
</svg>
