<!-- Generated by IcoMoon.io -->
<svg version="1.1" xmlns="http://www.w3.org/2000/svg" width="14" height="14" viewBox="0 0 14 14">
<title>target</title>
<path d="M14 6.125h-1.38c-0.378-2.437-2.308-4.367-4.745-4.745v-1.38h-1.75v1.38c-2.437 0.378-4.367 2.308-4.745 4.745h-1.38v1.75h1.38c0.378 2.437 2.308 4.367 4.745 4.745v1.38h1.75v-1.38c2.437-0.378 4.367-2.308 4.745-4.745h1.38v-1.75zM10.839 6.125h-1.364c-0.264-0.746-0.855-1.337-1.6-1.6v-1.364c1.47 0.335 2.63 1.494 2.964 2.964zM7 7.875c-0.483 0-0.875-0.392-0.875-0.875s0.392-0.875 0.875-0.875c0.483 0 0.875 0.392 0.875 0.875s-0.392 0.875-0.875 0.875zM6.125 3.161v1.364c-0.746 0.264-1.337 0.855-1.6 1.6h-1.364c0.335-1.47 1.494-2.63 2.964-2.964zM3.161 7.875h1.364c0.264 0.746 0.855 1.337 1.6 1.6v1.364c-1.47-0.335-2.63-1.494-2.964-2.964zM7.875 10.839v-1.364c0.746-0.264 1.337-0.855 1.6-1.6h1.364c-0.335 1.47-1.494 2.63-2.964 2.964z"></path>
</svg>
