<!-- Generated by IcoMoon.io -->
<svg version="1.1" xmlns="http://www.w3.org/2000/svg" width="14" height="14" viewBox="0 0 14 14">
<title>tree</title>
<path d="M13.344 10.5h-0.219v-2.844c0-0.844-0.687-1.531-1.531-1.531h-3.719v-1.75h0.219c0.361 0 0.656-0.295 0.656-0.656v-2.188c0-0.361-0.295-0.656-0.656-0.656h-2.188c-0.361 0-0.656 0.295-0.656 0.656v2.188c0 0.361 0.295 0.656 0.656 0.656h0.219v1.75h-3.719c-0.844 0-1.531 0.687-1.531 1.531v2.844h-0.219c-0.361 0-0.656 0.295-0.656 0.656v2.188c0 0.361 0.295 0.656 0.656 0.656h2.188c0.361 0 0.656-0.295 0.656-0.656v-2.188c0-0.361-0.295-0.656-0.656-0.656h-0.219v-2.625h3.5v2.625h-0.219c-0.361 0-0.656 0.295-0.656 0.656v2.188c0 0.361 0.295 0.656 0.656 0.656h2.188c0.361 0 0.656-0.295 0.656-0.656v-2.188c0-0.361-0.295-0.656-0.656-0.656h-0.219v-2.625h3.5v2.625h-0.219c-0.361 0-0.656 0.295-0.656 0.656v2.188c0 0.361 0.295 0.656 0.656 0.656h2.188c0.361 0 0.656-0.295 0.656-0.656v-2.188c0-0.361-0.295-0.656-0.656-0.656zM2.625 13.125h-1.75v-1.75h1.75v1.75zM7.875 13.125h-1.75v-1.75h1.75v1.75zM6.125 3.5v-1.75h1.75v1.75h-1.75zM13.125 13.125h-1.75v-1.75h1.75v1.75z"></path>
</svg>
