<!-- Generated by IcoMoon.io -->
<svg version="1.1" xmlns="http://www.w3.org/2000/svg" width="14" height="14" viewBox="0 0 14 14">
<title>truck</title>
<path d="M14 7.875l-1.75-3.5h-2.625v-1.75c0-0.481-0.394-0.875-0.875-0.875h-7.875c-0.481 0-0.875 0.394-0.875 0.875v7l0.875 0.875h1.11c-0.149 0.257-0.235 0.556-0.235 0.875 0 0.966 0.784 1.75 1.75 1.75s1.75-0.784 1.75-1.75c0-0.319-0.086-0.618-0.235-0.875h4.844c-0.149 0.257-0.235 0.556-0.235 0.875 0 0.966 0.784 1.75 1.75 1.75s1.75-0.784 1.75-1.75c0-0.319-0.086-0.618-0.235-0.875h1.11v-2.625zM9.625 7.875v-2.625h1.814l1.313 2.625h-3.126z"></path>
</svg>
