<!-- Generated by IcoMoon.io -->
<svg version="1.1" xmlns="http://www.w3.org/2000/svg" width="16" height="14" viewBox="0 0 16 14">
<title>users</title>
<path d="M10.5 10.536v-0.722c0.964-0.543 1.75-1.897 1.75-3.252 0-2.175 0-3.938-2.625-3.938s-2.625 1.763-2.625 3.938c0 1.354 0.786 2.708 1.75 3.252v0.722c-2.968 0.243-5.25 1.701-5.25 3.464h12.25c0-1.763-2.282-3.222-5.25-3.464z"></path>
<path d="M4.473 10.874c0.756-0.494 1.696-0.87 2.731-1.099-0.206-0.243-0.392-0.514-0.554-0.807-0.416-0.755-0.636-1.587-0.636-2.405 0-1.176 0-2.287 0.418-3.196 0.406-0.882 1.137-1.429 2.177-1.634-0.231-1.046-0.847-1.733-2.486-1.733-2.625 0-2.625 1.763-2.625 3.938 0 1.354 0.786 2.708 1.75 3.252v0.722c-2.968 0.243-5.25 1.701-5.25 3.464h3.815c0.198-0.177 0.418-0.344 0.659-0.501z"></path>
</svg>
