<!-- Generated by IcoMoon.io -->
<svg version="1.1" xmlns="http://www.w3.org/2000/svg" width="14" height="14" viewBox="0 0 14 14">
<title>wrench</title>
<path d="M13.712 11.182l-6.297-5.397c0.293-0.551 0.46-1.18 0.46-1.847 0-2.175-1.763-3.938-3.938-3.938-0.398 0-0.782 0.059-1.144 0.169l2.275 2.275c0.34 0.34 0.34 0.897 0 1.237l-1.388 1.388c-0.34 0.34-0.897 0.34-1.237 0l-2.275-2.275c-0.11 0.362-0.169 0.746-0.169 1.144 0 2.175 1.763 3.938 3.938 3.938 0.668 0 1.296-0.166 1.847-0.46l5.397 6.297c0.313 0.365 0.848 0.386 1.188 0.046l1.388-1.388c0.34-0.34 0.32-0.875-0.046-1.188z"></path>
</svg>
