<!-- Generated by IcoMoon.io -->
<svg version="1.1" xmlns="http://www.w3.org/2000/svg" width="18" height="18" viewBox="0 0 18 18">
<title>barcode</title>
<path d="M0.633 15.429h-0.633v-14.143h0.633v14.143zM1.266 15.419h-0.321v-14.133h0.321v14.133zM2.21 15.419h-0.311v-14.133h0.311v14.133zM3.787 15.419h-0.311v-14.133h0.311v14.133zM5.364 15.419h-0.623v-14.133h0.623v14.133zM6.629 15.419h-0.311v-14.133h0.311v14.133zM7.262 15.419h-0.311v-14.133h0.311v14.133zM7.895 15.419h-0.311v-14.133h0.311v14.133zM9.472 15.419h-0.633v-14.133h0.633v14.133zM11.049 15.419h-0.633v-14.133h0.633v14.133zM12.315 15.419h-0.633v-14.133h0.633v14.133zM13.58 15.419h-0.633v-14.133h0.633v14.133zM14.525 15.419h-0.633v-14.133h0.633v14.133zM16.423 15.419h-0.944v-14.133h0.944v14.133zM17.056 15.419h-0.321v-14.133h0.321v14.133zM18 15.429h-0.633v-14.143h0.633v14.143z"></path>
</svg>
