<!-- Generated by IcoMoon.io -->
<svg version="1.1" xmlns="http://www.w3.org/2000/svg" width="15" height="18" viewBox="0 0 15 18">
<title>database</title>
<path d="M7.714 7.714c3.023 0 6.057-0.542 7.714-1.708v1.708c0 1.416-3.455 2.571-7.714 2.571s-7.714-1.155-7.714-2.571v-1.708c1.657 1.165 4.691 1.708 7.714 1.708zM7.714 15.429c3.023 0 6.057-0.542 7.714-1.708v1.708c0 1.416-3.455 2.571-7.714 2.571s-7.714-1.155-7.714-2.571v-1.708c1.657 1.165 4.691 1.708 7.714 1.708zM7.714 11.571c3.023 0 6.057-0.542 7.714-1.708v1.708c0 1.416-3.455 2.571-7.714 2.571s-7.714-1.155-7.714-2.571v-1.708c1.657 1.165 4.691 1.708 7.714 1.708zM7.714 0c4.259 0 7.714 1.155 7.714 2.571v1.286c0 1.416-3.455 2.571-7.714 2.571s-7.714-1.155-7.714-2.571v-1.286c0-1.416 3.455-2.571 7.714-2.571z"></path>
</svg>
