<!-- Generated by IcoMoon.io -->
<svg version="1.1" xmlns="http://www.w3.org/2000/svg" width="15" height="18" viewBox="0 0 15 18">
<title>file-word-o</title>
<path d="M14.746 3.817c0.372 0.372 0.683 1.115 0.683 1.647v11.571c0 0.532-0.432 0.964-0.964 0.964h-13.5c-0.532 0-0.964-0.432-0.964-0.964v-16.071c0-0.532 0.432-0.964 0.964-0.964h9c0.532 0 1.276 0.311 1.647 0.683zM10.286 1.366v3.777h3.777c-0.060-0.171-0.151-0.342-0.221-0.412l-3.144-3.144c-0.070-0.070-0.241-0.161-0.412-0.221zM14.143 16.714v-10.286h-4.179c-0.532 0-0.964-0.432-0.964-0.964v-4.179h-7.714v15.429h12.857zM2.34 7.714v1.075h0.703l1.647 6.64h1.597l1.286-4.872c0.050-0.151 0.080-0.301 0.1-0.462 0.010-0.080 0.020-0.161 0.020-0.241h0.040l0.030 0.241c0.030 0.141 0.040 0.301 0.090 0.462l1.286 4.872h1.597l1.647-6.64h0.703v-1.075h-3.013v1.075h0.904l-0.994 4.4c-0.040 0.161-0.060 0.331-0.070 0.462l-0.020 0.211h-0.040c0-0.060-0.020-0.141-0.030-0.211-0.030-0.131-0.050-0.301-0.090-0.462l-1.446-5.474h-1.145l-1.446 5.474c-0.040 0.161-0.050 0.331-0.080 0.462l-0.040 0.211h-0.040l-0.020-0.211c-0.010-0.131-0.030-0.301-0.070-0.462l-0.994-4.4h0.904v-1.075h-3.013z"></path>
</svg>
