<!-- Generated by IcoMoon.io -->
<svg version="1.1" xmlns="http://www.w3.org/2000/svg" width="15" height="18" viewBox="0 0 15 18">
<title>file-pdf-o</title>
<path d="M14.746 3.817c0.372 0.372 0.683 1.115 0.683 1.647v11.571c0 0.532-0.432 0.964-0.964 0.964h-13.5c-0.532 0-0.964-0.432-0.964-0.964v-16.071c0-0.532 0.432-0.964 0.964-0.964h9c0.532 0 1.276 0.311 1.647 0.683zM10.286 1.366v3.777h3.777c-0.060-0.171-0.151-0.342-0.221-0.412l-3.144-3.144c-0.070-0.070-0.241-0.161-0.412-0.221zM14.143 16.714v-10.286h-4.179c-0.532 0-0.964-0.432-0.964-0.964v-4.179h-7.714v15.429h12.857zM8.98 10.758c0.251 0.201 0.532 0.382 0.844 0.563 0.422-0.050 0.814-0.070 1.175-0.070 0.673 0 1.527 0.080 1.778 0.492 0.070 0.1 0.131 0.281 0.020 0.522-0.010 0.010-0.020 0.030-0.030 0.040v0.010c-0.030 0.181-0.181 0.382-0.713 0.382-0.643 0-1.617-0.291-2.461-0.733-1.396 0.151-2.863 0.462-3.938 0.834-1.035 1.768-1.828 2.632-2.431 2.632-0.1 0-0.191-0.020-0.281-0.070l-0.241-0.121c-0.030-0.010-0.040-0.030-0.060-0.050-0.050-0.050-0.090-0.161-0.060-0.362 0.1-0.462 0.643-1.235 1.888-1.888 0.080-0.050 0.181-0.020 0.231 0.060 0.010 0.010 0.020 0.030 0.020 0.040 0.311-0.512 0.673-1.165 1.075-1.979 0.452-0.904 0.804-1.788 1.045-2.632-0.321-1.095-0.422-2.22-0.241-2.883 0.070-0.251 0.221-0.402 0.422-0.402h0.221c0.151 0 0.271 0.050 0.352 0.151 0.121 0.141 0.151 0.362 0.090 0.683-0.010 0.030-0.020 0.060-0.040 0.080 0.010 0.030 0.010 0.050 0.010 0.080v0.301c-0.010 0.633-0.020 1.235-0.141 1.929 0.352 1.055 0.874 1.908 1.467 2.391zM3.194 14.886c0.301-0.141 0.733-0.573 1.376-1.587-0.753 0.583-1.225 1.246-1.376 1.587zM7.192 5.645c-0.1 0.281-0.1 0.763-0.020 1.326 0.030-0.161 0.050-0.311 0.070-0.442 0.020-0.171 0.050-0.311 0.070-0.432 0.010-0.030 0.020-0.050 0.040-0.080-0.010-0.010-0.010-0.030-0.020-0.050-0.010-0.181-0.070-0.291-0.131-0.362 0 0.020-0.010 0.030-0.010 0.040zM5.946 12.285c0.884-0.352 1.868-0.633 2.853-0.814-0.1-0.080-0.201-0.151-0.291-0.231-0.492-0.432-0.934-1.035-1.276-1.768-0.191 0.613-0.472 1.266-0.834 1.979-0.151 0.281-0.301 0.563-0.452 0.834zM12.435 12.124c-0.050-0.050-0.311-0.241-1.406-0.241 0.492 0.181 0.944 0.281 1.246 0.281 0.090 0 0.141 0 0.181-0.010 0-0.010-0.010-0.020-0.020-0.030z"></path>
</svg>
