<!-- Generated by IcoMoon.io -->
<svg version="1.1" xmlns="http://www.w3.org/2000/svg" width="15" height="18" viewBox="0 0 15 18">
<title>file-movie-o</title>
<path d="M14.746 3.817c0.372 0.372 0.683 1.115 0.683 1.647v11.571c0 0.532-0.432 0.964-0.964 0.964h-13.5c-0.532 0-0.964-0.432-0.964-0.964v-16.071c0-0.532 0.432-0.964 0.964-0.964h9c0.532 0 1.276 0.311 1.647 0.683zM10.286 1.366v3.777h3.777c-0.060-0.171-0.151-0.342-0.221-0.412l-3.144-3.144c-0.070-0.070-0.241-0.161-0.412-0.221zM14.143 16.714v-10.286h-4.179c-0.532 0-0.964-0.432-0.964-0.964v-4.179h-7.714v15.429h12.857zM7.714 7.714c0.703 0 1.286 0.583 1.286 1.286v3.857c0 0.703-0.583 1.286-1.286 1.286h-3.857c-0.703 0-1.286-0.583-1.286-1.286v-3.857c0-0.703 0.583-1.286 1.286-1.286h3.857zM12.656 7.734c0.121 0.050 0.201 0.171 0.201 0.301v5.786c0 0.131-0.080 0.251-0.201 0.301-0.040 0.010-0.080 0.020-0.121 0.020-0.080 0-0.171-0.030-0.231-0.090l-2.662-2.672v-0.904l2.662-2.672c0.060-0.060 0.151-0.090 0.231-0.090 0.040 0 0.080 0.010 0.121 0.020z"></path>
</svg>
