<!-- Generated by IcoMoon.io -->
<svg version="1.1" xmlns="http://www.w3.org/2000/svg" width="15" height="18" viewBox="0 0 15 18">
<title>file-archive-o</title>
<path d="M6.429 3.857v-1.286h-1.286v1.286h1.286zM7.714 5.143v-1.286h-1.286v1.286h1.286zM6.429 6.429v-1.286h-1.286v1.286h1.286zM7.714 7.714v-1.286h-1.286v1.286h1.286zM14.746 3.817c0.372 0.372 0.683 1.115 0.683 1.647v11.571c0 0.532-0.432 0.964-0.964 0.964h-13.5c-0.532 0-0.964-0.432-0.964-0.964v-16.071c0-0.532 0.432-0.964 0.964-0.964h9c0.532 0 1.276 0.311 1.647 0.683zM10.286 1.366v3.777h3.777c-0.060-0.171-0.151-0.342-0.221-0.412l-3.144-3.144c-0.070-0.070-0.241-0.161-0.412-0.221zM14.143 16.714v-10.286h-4.179c-0.532 0-0.964-0.432-0.964-0.964v-4.179h-1.286v1.286h-1.286v-1.286h-5.143v15.429h12.857zM7.845 9.472c0.854 2.883 1.075 3.506 1.075 3.506 0.050 0.171 0.080 0.342 0.080 0.522 0 1.115-1.085 1.929-2.571 1.929s-2.571-0.814-2.571-1.929c0-0.181 0.030-0.352 0.080-0.522 0 0 0.211-0.623 1.205-3.978v-1.286h1.286v1.286h0.794c0.291 0 0.542 0.191 0.623 0.472zM6.429 14.143c0.713 0 1.286-0.291 1.286-0.643s-0.573-0.643-1.286-0.643-1.286 0.291-1.286 0.643 0.573 0.643 1.286 0.643z"></path>
</svg>
