<!-- Generated by IcoMoon.io -->
<svg version="1.1" xmlns="http://www.w3.org/2000/svg" width="15" height="18" viewBox="0 0 15 18">
<title>file-audio-o</title>
<path d="M14.746 3.817c0.372 0.372 0.683 1.115 0.683 1.647v11.571c0 0.532-0.432 0.964-0.964 0.964h-13.5c-0.532 0-0.964-0.432-0.964-0.964v-16.071c0-0.532 0.432-0.964 0.964-0.964h9c0.532 0 1.276 0.311 1.647 0.683zM10.286 1.366v3.777h3.777c-0.060-0.171-0.151-0.342-0.221-0.412l-3.144-3.144c-0.070-0.070-0.241-0.161-0.412-0.221zM14.143 16.714v-10.286h-4.179c-0.532 0-0.964-0.432-0.964-0.964v-4.179h-7.714v15.429h12.857zM6.228 8.538c0.121 0.050 0.201 0.171 0.201 0.301v5.464c0 0.131-0.080 0.251-0.201 0.301-0.040 0.010-0.080 0.020-0.121 0.020-0.080 0-0.161-0.030-0.231-0.090l-1.667-1.677h-1.316c-0.181 0-0.321-0.141-0.321-0.321v-1.929c0-0.181 0.141-0.321 0.321-0.321h1.316l1.667-1.677c0.1-0.090 0.231-0.121 0.352-0.070zM10.416 15.459c0.191 0 0.372-0.080 0.502-0.241 0.834-1.025 1.296-2.32 1.296-3.646s-0.462-2.622-1.296-3.646c-0.221-0.281-0.633-0.321-0.904-0.1-0.281 0.231-0.321 0.633-0.090 0.914 0.653 0.804 1.004 1.788 1.004 2.833s-0.352 2.029-1.004 2.833c-0.231 0.281-0.191 0.683 0.090 0.904 0.121 0.1 0.261 0.151 0.402 0.151zM8.297 13.972c0.171 0 0.342-0.070 0.472-0.201 0.563-0.603 0.874-1.376 0.874-2.2s-0.311-1.597-0.874-2.2c-0.241-0.261-0.653-0.271-0.914-0.030-0.251 0.241-0.271 0.653-0.020 0.914 0.331 0.362 0.522 0.824 0.522 1.316s-0.191 0.954-0.522 1.316c-0.251 0.261-0.231 0.673 0.020 0.914 0.131 0.11 0.291 0.171 0.442 0.171z"></path>
</svg>
