<!-- Generated by IcoMoon.io -->
<svg version="1.1" xmlns="http://www.w3.org/2000/svg" width="15" height="18" viewBox="0 0 15 18">
<title>file-excel-o</title>
<path d="M14.746 3.817c0.372 0.372 0.683 1.115 0.683 1.647v11.571c0 0.532-0.432 0.964-0.964 0.964h-13.5c-0.532 0-0.964-0.432-0.964-0.964v-16.071c0-0.532 0.432-0.964 0.964-0.964h9c0.532 0 1.276 0.311 1.647 0.683zM10.286 1.366v3.777h3.777c-0.060-0.171-0.151-0.342-0.221-0.412l-3.144-3.144c-0.070-0.070-0.241-0.161-0.412-0.221zM14.143 16.714v-10.286h-4.179c-0.532 0-0.964-0.432-0.964-0.964v-4.179h-7.714v15.429h12.857zM4.309 14.364v1.065h2.823v-1.065h-0.753l1.035-1.617c0.121-0.191 0.181-0.342 0.211-0.342h0.020c0.010 0.040 0.030 0.070 0.050 0.1 0.040 0.080 0.1 0.141 0.171 0.241l1.075 1.617h-0.763v1.065h2.923v-1.065h-0.683l-1.929-2.742 1.959-2.833h0.673v-1.075h-2.802v1.075h0.743l-1.035 1.597c-0.121 0.191-0.211 0.342-0.211 0.331h-0.020c-0.010-0.040-0.030-0.070-0.050-0.1-0.040-0.070-0.090-0.141-0.171-0.231l-1.065-1.597h0.763v-1.075h-2.913v1.075h0.683l1.898 2.732-1.949 2.843h-0.683z"></path>
</svg>
