<!-- Generated by IcoMoon.io -->
<svg version="1.1" xmlns="http://www.w3.org/2000/svg" width="15" height="18" viewBox="0 0 15 18">
<title>file-code-o</title>
<path d="M14.746 3.817c0.372 0.372 0.683 1.115 0.683 1.647v11.571c0 0.532-0.432 0.964-0.964 0.964h-13.5c-0.532 0-0.964-0.432-0.964-0.964v-16.071c0-0.532 0.432-0.964 0.964-0.964h9c0.532 0 1.276 0.311 1.647 0.683zM10.286 1.366v3.777h3.777c-0.060-0.171-0.151-0.342-0.221-0.412l-3.144-3.144c-0.070-0.070-0.241-0.161-0.412-0.221zM14.143 16.714v-10.286h-4.179c-0.532 0-0.964-0.432-0.964-0.964v-4.179h-7.714v15.429h12.857zM4.821 7.714c0.11-0.141 0.311-0.171 0.452-0.060l0.512 0.382c0.141 0.11 0.171 0.311 0.060 0.452l-1.828 2.441 1.828 2.441c0.11 0.141 0.080 0.342-0.060 0.452l-0.512 0.382c-0.141 0.11-0.342 0.080-0.452-0.060l-2.27-3.023c-0.080-0.11-0.080-0.271 0-0.382zM12.877 10.738c0.080 0.11 0.080 0.271 0 0.382l-2.27 3.023c-0.11 0.141-0.311 0.171-0.452 0.060l-0.512-0.382c-0.141-0.11-0.171-0.311-0.060-0.452l1.828-2.441-1.828-2.441c-0.11-0.141-0.080-0.342 0.060-0.452l0.512-0.382c0.141-0.11 0.342-0.080 0.452 0.060zM6.65 15.368c-0.181-0.030-0.291-0.201-0.261-0.372l1.386-8.347c0.030-0.181 0.201-0.291 0.372-0.261l0.633 0.1c0.181 0.030 0.291 0.201 0.261 0.372l-1.386 8.347c-0.030 0.181-0.201 0.291-0.372 0.261z"></path>
</svg>
