<!-- Generated by IcoMoon.io -->
<svg version="1.1" xmlns="http://www.w3.org/2000/svg" width="15" height="18" viewBox="0 0 15 18">
<title>file-image-o</title>
<path d="M14.746 3.817c0.372 0.372 0.683 1.115 0.683 1.647v11.571c0 0.532-0.432 0.964-0.964 0.964h-13.5c-0.532 0-0.964-0.432-0.964-0.964v-16.071c0-0.532 0.432-0.964 0.964-0.964h9c0.532 0 1.276 0.311 1.647 0.683zM10.286 1.366v3.777h3.777c-0.060-0.171-0.151-0.342-0.221-0.412l-3.144-3.144c-0.070-0.070-0.241-0.161-0.412-0.221zM14.143 16.714v-10.286h-4.179c-0.532 0-0.964-0.432-0.964-0.964v-4.179h-7.714v15.429h12.857zM12.857 12.214v3.214h-10.286v-1.929l1.929-1.929 1.286 1.286 3.857-3.857zM4.5 10.286c-1.065 0-1.929-0.864-1.929-1.929s0.864-1.929 1.929-1.929 1.929 0.864 1.929 1.929-0.864 1.929-1.929 1.929z"></path>
</svg>
