<!-- Generated by IcoMoon.io -->
<svg version="1.1" xmlns="http://www.w3.org/2000/svg" width="15" height="18" viewBox="0 0 15 18">
<title>file-powerpoint-o</title>
<path d="M14.746 3.817c0.372 0.372 0.683 1.115 0.683 1.647v11.571c0 0.532-0.432 0.964-0.964 0.964h-13.5c-0.532 0-0.964-0.432-0.964-0.964v-16.071c0-0.532 0.432-0.964 0.964-0.964h9c0.532 0 1.276 0.311 1.647 0.683zM10.286 1.366v3.777h3.777c-0.060-0.171-0.151-0.342-0.221-0.412l-3.144-3.144c-0.070-0.070-0.241-0.161-0.412-0.221zM14.143 16.714v-10.286h-4.179c-0.532 0-0.964-0.432-0.964-0.964v-4.179h-7.714v15.429h12.857zM4.179 14.364v1.065h3.285v-1.065h-0.934v-1.677h1.376c0.432 0 0.824-0.020 1.185-0.151 0.904-0.311 1.467-1.246 1.467-2.34s-0.542-1.939-1.376-2.29c-0.382-0.151-0.844-0.191-1.306-0.191h-3.696v1.075h0.924v5.575h-0.924zM7.724 11.551h-1.195v-2.692h1.205c0.352 0 0.623 0.060 0.834 0.181 0.362 0.211 0.563 0.623 0.563 1.155 0 0.563-0.201 0.994-0.623 1.205-0.211 0.1-0.472 0.151-0.783 0.151z"></path>
</svg>
