<!-- Generated by IcoMoon.io -->
<svg version="1.1" xmlns="http://www.w3.org/2000/svg" width="19" height="18" viewBox="0 0 19 18">
<title>folder-open-o</title>
<path d="M17.89 9.352c0-0.281-0.311-0.352-0.532-0.352h-10.929c-0.532 0-1.235 0.331-1.577 0.743l-2.953 3.646c-0.090 0.121-0.181 0.251-0.181 0.402 0 0.281 0.311 0.352 0.532 0.352h10.929c0.532 0 1.235-0.331 1.577-0.753l2.953-3.646c0.090-0.11 0.181-0.241 0.181-0.392zM6.429 7.714h7.714v-1.607c0-0.532-0.432-0.964-0.964-0.964h-5.786c-0.532 0-0.964-0.432-0.964-0.964v-0.643c0-0.532-0.432-0.964-0.964-0.964h-3.214c-0.532 0-0.964 0.432-0.964 0.964v8.568l2.571-3.164c0.583-0.713 1.657-1.225 2.571-1.225zM19.175 9.352c0 0.442-0.191 0.864-0.462 1.205l-2.963 3.646c-0.573 0.703-1.667 1.225-2.571 1.225h-10.929c-1.235 0-2.25-1.015-2.25-2.25v-9.643c0-1.235 1.015-2.25 2.25-2.25h3.214c1.235 0 2.25 1.015 2.25 2.25v0.321h5.464c1.235 0 2.25 1.015 2.25 2.25v1.607h1.929c0.683 0 1.366 0.311 1.667 0.954 0.1 0.211 0.151 0.442 0.151 0.683z"></path>
</svg>
