<!-- Generated by IcoMoon.io -->
<svg version="1.1" xmlns="http://www.w3.org/2000/svg" width="17" height="18" viewBox="0 0 17 18">
<title>folder-o</title>
<path d="M15.429 13.179v-7.071c0-0.532-0.432-0.964-0.964-0.964h-7.071c-0.532 0-0.964-0.432-0.964-0.964v-0.643c0-0.532-0.432-0.964-0.964-0.964h-3.214c-0.532 0-0.964 0.432-0.964 0.964v9.643c0 0.532 0.432 0.964 0.964 0.964h12.214c0.532 0 0.964-0.432 0.964-0.964zM16.714 6.107v7.071c0 1.235-1.015 2.25-2.25 2.25h-12.214c-1.235 0-2.25-1.015-2.25-2.25v-9.643c0-1.235 1.015-2.25 2.25-2.25h3.214c1.235 0 2.25 1.015 2.25 2.25v0.321h6.75c1.235 0 2.25 1.015 2.25 2.25z"></path>
</svg>
