<!-- Generated by IcoMoon.io -->
<svg version="1.1" xmlns="http://www.w3.org/2000/svg" width="14" height="18" viewBox="0 0 14 18">
<title>qrcode</title>
<path d="M3.857 11.571v1.286h-1.286v-1.286h1.286zM3.857 3.857v1.286h-1.286v-1.286h1.286zM11.571 3.857v1.286h-1.286v-1.286h1.286zM1.286 14.133h3.857v-3.847h-3.857v3.847zM1.286 6.429h3.857v-3.857h-3.857v3.857zM9 6.429h3.857v-3.857h-3.857v3.857zM6.429 9v6.429h-6.429v-6.429h6.429zM11.571 14.143v1.286h-1.286v-1.286h1.286zM14.143 14.143v1.286h-1.286v-1.286h1.286zM14.143 9v3.857h-3.857v-1.286h-1.286v3.857h-1.286v-6.429h3.857v1.286h1.286v-1.286h1.286zM6.429 1.286v6.429h-6.429v-6.429h6.429zM14.143 1.286v6.429h-6.429v-6.429h6.429z"></path>
</svg>
