<!-- Generated by IcoMoon.io -->
<svg version="1.1" xmlns="http://www.w3.org/2000/svg" width="23" height="18" viewBox="0 0 23 18">
<title>soundcloud</title>
<path d="M7.875 13.781l0.161-2.421-0.161-5.253c-0.010-0.131-0.11-0.241-0.241-0.241-0.121 0-0.231 0.11-0.231 0.241l-0.141 5.253 0.141 2.421c0.010 0.131 0.11 0.231 0.231 0.231 0.131 0 0.231-0.1 0.241-0.231zM10.848 13.49l0.11-2.119-0.121-5.886c0-0.1-0.050-0.191-0.131-0.241-0.050-0.030-0.1-0.050-0.161-0.050s-0.11 0.020-0.161 0.050c-0.080 0.050-0.131 0.141-0.131 0.241l-0.010 0.060-0.1 5.816s0 0.010 0.11 2.371v0.010c0 0.060 0.020 0.121 0.060 0.171 0.060 0.070 0.141 0.11 0.231 0.11 0.080 0 0.151-0.040 0.201-0.090 0.060-0.050 0.090-0.121 0.090-0.201zM0.352 10.075l0.201 1.286-0.201 1.266c-0.010 0.050-0.040 0.090-0.090 0.090s-0.080-0.040-0.090-0.090l-0.171-1.266 0.171-1.286c0.010-0.050 0.040-0.090 0.090-0.090s0.080 0.040 0.090 0.090zM1.215 9.281l0.261 2.079-0.261 2.039c-0.010 0.050-0.050 0.090-0.1 0.090s-0.090-0.040-0.090-0.1l-0.231-2.029 0.231-2.079c0-0.050 0.040-0.090 0.090-0.090s0.090 0.040 0.1 0.090zM4.028 13.831v0 0zM2.14 8.9l0.251 2.461-0.251 2.381c0 0.060-0.050 0.11-0.11 0.11s-0.11-0.050-0.121-0.11l-0.211-2.381 0.211-2.461c0.010-0.070 0.060-0.121 0.121-0.121s0.11 0.050 0.11 0.121zM3.084 8.829l0.231 2.531-0.231 2.451c-0.010 0.080-0.070 0.131-0.141 0.131s-0.131-0.050-0.131-0.131l-0.211-2.451 0.211-2.531c0-0.080 0.060-0.131 0.131-0.131s0.131 0.050 0.141 0.131zM4.028 9.010l0.211 2.35-0.211 2.471c-0.010 0.090-0.080 0.161-0.161 0.161s-0.151-0.070-0.151-0.161l-0.201-2.471 0.201-2.35c0-0.080 0.070-0.151 0.151-0.151s0.151 0.070 0.161 0.151zM7.875 13.781v0 0zM4.972 7.544l0.211 3.817-0.211 2.471c0 0.1-0.080 0.181-0.171 0.181-0.1 0-0.171-0.080-0.181-0.181l-0.181-2.471 0.181-3.817c0.010-0.1 0.080-0.181 0.181-0.181 0.090 0 0.171 0.080 0.171 0.181zM5.916 6.68l0.191 4.701-0.191 2.451c0 0.11-0.090 0.191-0.191 0.191-0.11 0-0.191-0.080-0.201-0.191l-0.161-2.451 0.161-4.701c0.010-0.11 0.090-0.191 0.201-0.191 0.1 0 0.191 0.080 0.191 0.191zM6.901 6.278l0.181 5.083-0.181 2.431c-0.010 0.121-0.1 0.211-0.221 0.211-0.11 0-0.201-0.090-0.211-0.211l-0.161-2.431 0.161-5.083c0-0.121 0.1-0.221 0.211-0.221 0.121 0 0.211 0.1 0.221 0.221zM10.838 13.731v0 0 0 0 0 0zM8.849 6.238l0.151 5.123-0.151 2.401c0 0.141-0.11 0.251-0.251 0.251s-0.241-0.11-0.251-0.251l-0.141-2.401 0.141-5.123c0-0.141 0.11-0.251 0.251-0.251s0.251 0.11 0.251 0.251zM9.844 6.429l0.141 4.942-0.141 2.371c0 0.151-0.121 0.271-0.271 0.271s-0.271-0.121-0.281-0.271l-0.121-2.371 0.121-4.942c0.010-0.161 0.131-0.281 0.281-0.281s0.261 0.121 0.271 0.281zM11.973 11.371l-0.141 2.32c0 0.171-0.141 0.311-0.311 0.311s-0.311-0.141-0.321-0.311l-0.060-1.145-0.060-1.175 0.121-6.388v-0.030c0.010-0.090 0.050-0.181 0.121-0.241 0.050-0.040 0.121-0.070 0.201-0.070 0.050 0 0.11 0.020 0.151 0.050 0.090 0.050 0.151 0.151 0.161 0.261zM23.143 11.18c0 1.567-1.276 2.833-2.843 2.833h-7.895c-0.171-0.020-0.311-0.151-0.311-0.331v-9.030c0-0.171 0.060-0.251 0.281-0.331 0.552-0.221 1.175-0.342 1.818-0.342 2.622 0 4.771 2.009 5.002 4.57 0.342-0.141 0.713-0.221 1.105-0.221 1.567 0 2.843 1.276 2.843 2.853z"></path>
</svg>
