<!-- Generated by IcoMoon.io -->
<svg version="1.1" xmlns="http://www.w3.org/2000/svg" width="15" height="18" viewBox="0 0 15 18">
<title>ban</title>
<path d="M13.179 8.97c0-1.095-0.321-2.109-0.874-2.963l-7.574 7.564c0.864 0.563 1.888 0.894 2.983 0.894 3.013 0 5.464-2.461 5.464-5.494zM3.144 11.973l7.584-7.574c-0.864-0.583-1.898-0.914-3.013-0.914-3.013 0-5.464 2.461-5.464 5.484 0 1.115 0.331 2.14 0.894 3.003zM15.429 8.97c0 4.279-3.455 7.744-7.714 7.744s-7.714-3.465-7.714-7.744c0-4.269 3.455-7.734 7.714-7.734s7.714 3.465 7.714 7.734z"></path>
</svg>
