<!-- Generated by IcoMoon.io -->
<svg version="1.1" xmlns="http://www.w3.org/2000/svg" width="15" height="18" viewBox="0 0 15 18">
<title>check-circle</title>
<path d="M12.897 7.373c0-0.171-0.060-0.342-0.181-0.462l-0.914-0.904c-0.121-0.121-0.281-0.191-0.452-0.191s-0.331 0.070-0.452 0.191l-4.098 4.088-2.27-2.27c-0.121-0.121-0.281-0.191-0.452-0.191s-0.331 0.070-0.452 0.191l-0.914 0.904c-0.121 0.121-0.181 0.291-0.181 0.462s0.060 0.331 0.181 0.452l3.636 3.636c0.121 0.121 0.291 0.191 0.452 0.191 0.171 0 0.342-0.070 0.462-0.191l5.454-5.454c0.121-0.121 0.181-0.281 0.181-0.452zM15.429 9c0 4.259-3.455 7.714-7.714 7.714s-7.714-3.455-7.714-7.714 3.455-7.714 7.714-7.714 7.714 3.455 7.714 7.714z"></path>
</svg>
