<!-- Generated by IcoMoon.io -->
<svg version="1.1" xmlns="http://www.w3.org/2000/svg" width="15" height="18" viewBox="0 0 15 18">
<title>check-circle-o</title>
<path d="M11.762 8.166l-4.239 4.239c-0.251 0.251-0.653 0.251-0.904 0l-2.953-2.953c-0.251-0.251-0.251-0.653 0-0.904l1.025-1.025c0.251-0.251 0.653-0.251 0.904 0l1.477 1.477 2.762-2.762c0.251-0.251 0.653-0.251 0.904 0l1.025 1.025c0.251 0.251 0.251 0.653 0 0.904zM13.179 9c0-3.013-2.451-5.464-5.464-5.464s-5.464 2.451-5.464 5.464 2.451 5.464 5.464 5.464 5.464-2.451 5.464-5.464zM15.429 9c0 4.259-3.455 7.714-7.714 7.714s-7.714-3.455-7.714-7.714 3.455-7.714 7.714-7.714 7.714 3.455 7.714 7.714z"></path>
</svg>
