<!-- Generated by IcoMoon.io -->
<svg version="1.1" xmlns="http://www.w3.org/2000/svg" width="18" height="18" viewBox="0 0 18 18">
<title>envelope-o</title>
<path d="M16.714 15.107v-7.714c-0.211 0.241-0.442 0.462-0.693 0.663-1.436 1.105-2.883 2.23-4.279 3.395-0.753 0.633-1.688 1.406-2.732 1.406h-0.020c-1.045 0-1.979-0.773-2.732-1.406-1.396-1.165-2.843-2.29-4.279-3.395-0.251-0.201-0.482-0.422-0.693-0.663v7.714c0 0.171 0.151 0.321 0.321 0.321h14.786c0.171 0 0.321-0.151 0.321-0.321zM16.714 4.55c0-0.251 0.060-0.693-0.321-0.693h-14.786c-0.171 0-0.321 0.151-0.321 0.321 0 1.145 0.573 2.14 1.477 2.853 1.346 1.055 2.692 2.119 4.028 3.184 0.532 0.432 1.497 1.356 2.2 1.356h0.020c0.703 0 1.667-0.924 2.2-1.356 1.336-1.065 2.682-2.129 4.028-3.184 0.653-0.512 1.477-1.627 1.477-2.481zM18 4.179v10.929c0 0.884-0.723 1.607-1.607 1.607h-14.786c-0.884 0-1.607-0.723-1.607-1.607v-10.929c0-0.884 0.723-1.607 1.607-1.607h14.786c0.884 0 1.607 0.723 1.607 1.607z"></path>
</svg>
