<!-- Generated by IcoMoon.io -->
<svg version="1.1" xmlns="http://www.w3.org/2000/svg" width="18" height="18" viewBox="0 0 18 18">
<title>eye-slash</title>
<path d="M5.575 13.41l0.783-1.416c-1.165-0.844-1.858-2.2-1.858-3.636 0-0.794 0.211-1.577 0.613-2.26-1.567 0.804-2.873 2.069-3.827 3.546 1.045 1.617 2.521 2.973 4.289 3.767zM9.482 5.786c0-0.261-0.221-0.482-0.482-0.482-1.677 0-3.054 1.376-3.054 3.054 0 0.261 0.221 0.482 0.482 0.482s0.482-0.221 0.482-0.482c0-1.155 0.944-2.089 2.089-2.089 0.261 0 0.482-0.221 0.482-0.482zM13.128 3.867c0 0.020 0 0.070-0.010 0.090-2.119 3.787-4.219 7.594-6.338 11.381l-0.492 0.894c-0.060 0.1-0.171 0.161-0.281 0.161-0.181 0-1.135-0.583-1.346-0.703-0.1-0.060-0.161-0.161-0.161-0.281 0-0.161 0.342-0.703 0.442-0.874-1.949-0.884-3.586-2.391-4.741-4.199-0.131-0.201-0.201-0.442-0.201-0.693 0-0.241 0.070-0.492 0.201-0.693 1.989-3.054 5.093-5.093 8.799-5.093 0.603 0 1.215 0.060 1.808 0.171l0.542-0.974c0.060-0.1 0.161-0.161 0.281-0.161 0.181 0 1.125 0.583 1.336 0.703 0.1 0.060 0.161 0.161 0.161 0.271zM13.5 8.357c0 1.868-1.155 3.536-2.893 4.199l2.813-5.042c0.050 0.281 0.080 0.562 0.080 0.844zM18 9.643c0 0.261-0.070 0.472-0.201 0.693-0.311 0.512-0.703 1.004-1.095 1.456-1.969 2.26-4.681 3.636-7.704 3.636l0.743-1.326c2.923-0.251 5.404-2.029 6.971-4.46-0.743-1.155-1.698-2.17-2.833-2.953l0.633-1.125c1.246 0.834 2.501 2.089 3.285 3.385 0.131 0.221 0.201 0.432 0.201 0.693z"></path>
</svg>
