<!-- Generated by IcoMoon.io -->
<svg version="1.1" xmlns="http://www.w3.org/2000/svg" width="18" height="18" viewBox="0 0 18 18">
<title>eye</title>
<path d="M16.714 9.643c-0.954-1.477-2.26-2.742-3.827-3.546 0.402 0.683 0.613 1.467 0.613 2.26 0 2.481-2.019 4.5-4.5 4.5s-4.5-2.019-4.5-4.5c0-0.794 0.211-1.577 0.613-2.26-1.567 0.804-2.873 2.069-3.827 3.546 1.718 2.652 4.49 4.5 7.714 4.5s5.997-1.848 7.714-4.5zM9.482 5.786c0-0.261-0.221-0.482-0.482-0.482-1.677 0-3.054 1.376-3.054 3.054 0 0.261 0.221 0.482 0.482 0.482s0.482-0.221 0.482-0.482c0-1.145 0.944-2.089 2.089-2.089 0.261 0 0.482-0.221 0.482-0.482zM18 9.643c0 0.251-0.080 0.482-0.201 0.693-1.848 3.044-5.233 5.093-8.799 5.093s-6.951-2.059-8.799-5.093c-0.121-0.211-0.201-0.442-0.201-0.693s0.080-0.482 0.201-0.693c1.848-3.033 5.233-5.093 8.799-5.093s6.951 2.059 8.799 5.093c0.121 0.211 0.201 0.442 0.201 0.693z"></path>
</svg>
