<!-- Generated by IcoMoon.io -->
<svg version="1.1" xmlns="http://www.w3.org/2000/svg" width="15" height="18" viewBox="0 0 15 18">
<title>info-circle</title>
<path d="M10.286 13.821v-1.607c0-0.181-0.141-0.321-0.321-0.321h-0.964v-5.143c0-0.181-0.141-0.321-0.321-0.321h-3.214c-0.181 0-0.321 0.141-0.321 0.321v1.607c0 0.181 0.141 0.321 0.321 0.321h0.964v3.214h-0.964c-0.181 0-0.321 0.141-0.321 0.321v1.607c0 0.181 0.141 0.321 0.321 0.321h4.5c0.181 0 0.321-0.141 0.321-0.321zM9 4.821v-1.607c0-0.181-0.141-0.321-0.321-0.321h-1.929c-0.181 0-0.321 0.141-0.321 0.321v1.607c0 0.181 0.141 0.321 0.321 0.321h1.929c0.181 0 0.321-0.141 0.321-0.321zM15.429 9c0 4.259-3.455 7.714-7.714 7.714s-7.714-3.455-7.714-7.714 3.455-7.714 7.714-7.714 7.714 3.455 7.714 7.714z"></path>
</svg>
