<!-- Generated by IcoMoon.io -->
<svg version="1.1" xmlns="http://www.w3.org/2000/svg" width="15" height="18" viewBox="0 0 15 18">
<title>plus-circle</title>
<path d="M12.214 9.643v-1.286c0-0.352-0.291-0.643-0.643-0.643h-2.571v-2.571c0-0.352-0.291-0.643-0.643-0.643h-1.286c-0.352 0-0.643 0.291-0.643 0.643v2.571h-2.571c-0.352 0-0.643 0.291-0.643 0.643v1.286c0 0.352 0.291 0.643 0.643 0.643h2.571v2.571c0 0.352 0.291 0.643 0.643 0.643h1.286c0.352 0 0.643-0.291 0.643-0.643v-2.571h2.571c0.352 0 0.643-0.291 0.643-0.643zM15.429 9c0 4.259-3.455 7.714-7.714 7.714s-7.714-3.455-7.714-7.714 3.455-7.714 7.714-7.714 7.714 3.455 7.714 7.714z"></path>
</svg>
