<!-- Generated by IcoMoon.io -->
<svg version="1.1" xmlns="http://www.w3.org/2000/svg" width="15" height="18" viewBox="0 0 15 18">
<title>question-circle</title>
<path d="M9 13.821v-1.929c0-0.181-0.141-0.321-0.321-0.321h-1.929c-0.181 0-0.321 0.141-0.321 0.321v1.929c0 0.181 0.141 0.321 0.321 0.321h1.929c0.181 0 0.321-0.141 0.321-0.321zM11.571 7.071c0-1.838-1.929-3.214-3.656-3.214-1.637 0-2.863 0.703-3.727 2.14-0.090 0.141-0.050 0.321 0.080 0.422l1.326 1.004c0.050 0.040 0.121 0.060 0.191 0.060 0.090 0 0.191-0.040 0.251-0.121 0.472-0.603 0.673-0.783 0.864-0.924 0.171-0.121 0.502-0.241 0.864-0.241 0.643 0 1.235 0.412 1.235 0.854 0 0.522-0.271 0.783-0.884 1.065-0.713 0.321-1.687 1.155-1.687 2.129v0.362c0 0.181 0.141 0.321 0.321 0.321h1.929c0.181 0 0.321-0.141 0.321-0.321v0c0-0.231 0.291-0.723 0.763-0.994 0.763-0.432 1.808-1.015 1.808-2.541zM15.429 9c0 4.259-3.455 7.714-7.714 7.714s-7.714-3.455-7.714-7.714 3.455-7.714 7.714-7.714 7.714 3.455 7.714 7.714z"></path>
</svg>
