<!-- Generated by IcoMoon.io -->
<svg version="1.1" xmlns="http://www.w3.org/2000/svg" width="17" height="18" viewBox="0 0 17 18">
<title>search</title>
<path d="M11.571 8.357c0-2.481-2.019-4.5-4.5-4.5s-4.5 2.019-4.5 4.5 2.019 4.5 4.5 4.5 4.5-2.019 4.5-4.5zM16.714 16.714c0 0.703-0.583 1.286-1.286 1.286-0.342 0-0.673-0.141-0.904-0.382l-3.445-3.435c-1.175 0.814-2.581 1.246-4.008 1.246-3.907 0-7.071-3.164-7.071-7.071s3.164-7.071 7.071-7.071 7.071 3.164 7.071 7.071c0 1.426-0.432 2.833-1.246 4.008l3.445 3.445c0.231 0.231 0.372 0.563 0.372 0.904z"></path>
</svg>
