<!-- Generated by IcoMoon.io -->
<svg version="1.1" xmlns="http://www.w3.org/2000/svg" width="15" height="18" viewBox="0 0 15 18">
<title>sign-in</title>
<path d="M11.893 9c0 0.171-0.070 0.331-0.191 0.452l-5.464 5.464c-0.121 0.121-0.281 0.191-0.452 0.191-0.352 0-0.643-0.291-0.643-0.643v-2.893h-4.5c-0.352 0-0.643-0.291-0.643-0.643v-3.857c0-0.352 0.291-0.643 0.643-0.643h4.5v-2.893c0-0.352 0.291-0.643 0.643-0.643 0.171 0 0.331 0.070 0.452 0.191l5.464 5.464c0.121 0.121 0.191 0.281 0.191 0.452zM15.429 5.464v7.071c0 1.597-1.296 2.893-2.893 2.893h-3.214c-0.171 0-0.321-0.151-0.321-0.321 0-0.281-0.131-0.964 0.321-0.964h3.214c0.884 0 1.607-0.723 1.607-1.607v-7.071c0-0.884-0.723-1.607-1.607-1.607h-2.893c-0.251 0-0.643 0.050-0.643-0.321 0-0.281-0.131-0.964 0.321-0.964h3.214c1.597 0 2.893 1.296 2.893 2.893z"></path>
</svg>
