<!-- Generated by IcoMoon.io -->
<svg version="1.1" xmlns="http://www.w3.org/2000/svg" width="17" height="18" viewBox="0 0 17 18">
<title>star</title>
<path d="M16.714 6.499c0 0.181-0.131 0.352-0.261 0.482l-3.646 3.556 0.864 5.022c0.010 0.070 0.010 0.131 0.010 0.201 0 0.261-0.121 0.502-0.412 0.502-0.141 0-0.281-0.050-0.402-0.121l-4.51-2.371-4.51 2.371c-0.131 0.070-0.261 0.121-0.402 0.121-0.291 0-0.422-0.241-0.422-0.502 0-0.070 0.010-0.131 0.020-0.201l0.864-5.022-3.656-3.556c-0.121-0.131-0.251-0.301-0.251-0.482 0-0.301 0.311-0.422 0.563-0.462l5.042-0.733 2.26-4.57c0.090-0.191 0.261-0.412 0.492-0.412s0.402 0.221 0.492 0.412l2.26 4.57 5.042 0.733c0.241 0.040 0.563 0.161 0.563 0.462z"></path>
</svg>
