<!-- Generated by IcoMoon.io -->
<svg version="1.1" xmlns="http://www.w3.org/2000/svg" width="15" height="18" viewBox="0 0 15 18">
<title>times-circle</title>
<path d="M11.541 11.27c0-0.171-0.070-0.331-0.191-0.452l-1.818-1.818 1.818-1.818c0.121-0.121 0.191-0.281 0.191-0.452s-0.070-0.342-0.191-0.462l-0.904-0.904c-0.121-0.121-0.291-0.191-0.462-0.191s-0.331 0.070-0.452 0.191l-1.818 1.818-1.818-1.818c-0.121-0.121-0.281-0.191-0.452-0.191s-0.342 0.070-0.462 0.191l-0.904 0.904c-0.121 0.121-0.191 0.291-0.191 0.462s0.070 0.331 0.191 0.452l1.818 1.818-1.818 1.818c-0.121 0.121-0.191 0.281-0.191 0.452s0.070 0.342 0.191 0.462l0.904 0.904c0.121 0.121 0.291 0.191 0.462 0.191s0.331-0.070 0.452-0.191l1.818-1.818 1.818 1.818c0.121 0.121 0.281 0.191 0.452 0.191s0.342-0.070 0.462-0.191l0.904-0.904c0.121-0.121 0.191-0.291 0.191-0.462zM15.429 9c0 4.259-3.455 7.714-7.714 7.714s-7.714-3.455-7.714-7.714 3.455-7.714 7.714-7.714 7.714 3.455 7.714 7.714z"></path>
</svg>
