<!-- Generated by IcoMoon.io -->
<svg version="1.1" xmlns="http://www.w3.org/2000/svg" width="15" height="18" viewBox="0 0 15 18">
<title>times-circle-o</title>
<path d="M11.019 10.838l-1.467 1.467c-0.131 0.131-0.331 0.131-0.462 0l-1.376-1.376-1.376 1.376c-0.131 0.131-0.331 0.131-0.462 0l-1.467-1.467c-0.131-0.131-0.131-0.331 0-0.462l1.376-1.376-1.376-1.376c-0.131-0.131-0.131-0.331 0-0.462l1.467-1.467c0.131-0.131 0.331-0.131 0.462 0l1.376 1.376 1.376-1.376c0.131-0.131 0.331-0.131 0.462 0l1.467 1.467c0.131 0.131 0.131 0.331 0 0.462l-1.376 1.376 1.376 1.376c0.131 0.131 0.131 0.331 0 0.462zM13.179 9c0-3.013-2.451-5.464-5.464-5.464s-5.464 2.451-5.464 5.464 2.451 5.464 5.464 5.464 5.464-2.451 5.464-5.464zM15.429 9c0 4.259-3.455 7.714-7.714 7.714s-7.714-3.455-7.714-7.714 3.455-7.714 7.714-7.714 7.714 3.455 7.714 7.714z"></path>
</svg>
