<!-- Generated by IcoMoon.io -->
<svg version="1.1" xmlns="http://www.w3.org/2000/svg" width="18" height="18" viewBox="0 0 18 18">
<title>align-justify</title>
<path d="M18 13.5v1.286c0 0.352-0.291 0.643-0.643 0.643h-16.714c-0.352 0-0.643-0.291-0.643-0.643v-1.286c0-0.352 0.291-0.643 0.643-0.643h16.714c0.352 0 0.643 0.291 0.643 0.643zM18 9.643v1.286c0 0.352-0.291 0.643-0.643 0.643h-16.714c-0.352 0-0.643-0.291-0.643-0.643v-1.286c0-0.352 0.291-0.643 0.643-0.643h16.714c0.352 0 0.643 0.291 0.643 0.643zM18 5.786v1.286c0 0.352-0.291 0.643-0.643 0.643h-16.714c-0.352 0-0.643-0.291-0.643-0.643v-1.286c0-0.352 0.291-0.643 0.643-0.643h16.714c0.352 0 0.643 0.291 0.643 0.643zM18 1.929v1.286c0 0.352-0.291 0.643-0.643 0.643h-16.714c-0.352 0-0.643-0.291-0.643-0.643v-1.286c0-0.352 0.291-0.643 0.643-0.643h16.714c0.352 0 0.643 0.291 0.643 0.643z"></path>
</svg>
