<!-- Generated by IcoMoon.io -->
<svg version="1.1" xmlns="http://www.w3.org/2000/svg" width="18" height="18" viewBox="0 0 18 18">
<title>align-center</title>
<path d="M18 13.5v1.286c0 0.352-0.291 0.643-0.643 0.643h-16.714c-0.352 0-0.643-0.291-0.643-0.643v-1.286c0-0.352 0.291-0.643 0.643-0.643h16.714c0.352 0 0.643 0.291 0.643 0.643zM14.143 9.643v1.286c0 0.352-0.291 0.643-0.643 0.643h-9c-0.352 0-0.643-0.291-0.643-0.643v-1.286c0-0.352 0.291-0.643 0.643-0.643h9c0.352 0 0.643 0.291 0.643 0.643zM16.714 5.786v1.286c0 0.352-0.291 0.643-0.643 0.643h-14.143c-0.352 0-0.643-0.291-0.643-0.643v-1.286c0-0.352 0.291-0.643 0.643-0.643h14.143c0.352 0 0.643 0.291 0.643 0.643zM12.857 1.929v1.286c0 0.352-0.291 0.643-0.643 0.643h-6.429c-0.352 0-0.643-0.291-0.643-0.643v-1.286c0-0.352 0.291-0.643 0.643-0.643h6.429c0.352 0 0.643 0.291 0.643 0.643z"></path>
</svg>
