<!-- Generated by IcoMoon.io -->
<svg version="1.1" xmlns="http://www.w3.org/2000/svg" width="14" height="18" viewBox="0 0 14 18">
<title>bold</title>
<path d="M5.575 15.278c0.442 0.191 0.924 0.321 1.406 0.321 2.29 0 3.777-0.914 3.777-3.365 0-0.623-0.080-1.276-0.412-1.808-0.934-1.507-2.28-1.587-3.897-1.587-0.301 0-0.733 0-1.015 0.1 0 1.065-0.010 2.129-0.010 3.184 0 0.693-0.090 2.571 0.151 3.154zM5.434 7.785c0.362 0.060 0.733 0.070 1.095 0.070 2.069 0 3.546-0.583 3.546-2.903 0-1.959-1.738-2.632-3.415-2.632-0.442 0-0.874 0.060-1.306 0.131 0 1.015 0.080 2.029 0.080 3.044 0 0.532-0.010 1.065-0.010 1.597 0 0.231 0 0.462 0.010 0.693zM0 16.714l0.020-0.944c0.643-0.161 1.296-0.171 1.919-0.432 0.352-0.593 0.301-1.637 0.301-2.31 0-0.221 0.020-9.824-0.221-10.296-0.151-0.291-1.627-0.362-1.959-0.402l-0.040-0.834c2.391-0.040 4.781-0.211 7.162-0.211 0.452 0 0.914 0.010 1.366 0.010 2.27 0 4.771 1.085 4.771 3.696 0 1.798-1.366 2.471-2.782 3.114 1.908 0.432 3.606 1.728 3.606 3.837 0 3.455-3.144 4.6-6.087 4.6-0.884 0-1.768-0.060-2.652-0.060-1.798 0-3.616 0.161-5.404 0.231z"></path>
</svg>
