<!-- Generated by IcoMoon.io -->
<svg version="1.1" xmlns="http://www.w3.org/2000/svg" width="17" height="18" viewBox="0 0 17 18">
<title>font</title>
<path d="M7.282 5.615l-1.708 4.52c0.994 0.010 1.989 0.040 2.983 0.040 0.191 0 0.382-0.010 0.573-0.020-0.522-1.527-1.135-3.084-1.848-4.54zM0 16.714l0.020-0.794c0.944-0.291 1.969-0.090 2.391-1.175l2.381-6.188 2.813-7.272h1.286c0.040 0.070 0.080 0.141 0.11 0.211l2.059 4.821c0.753 1.778 1.446 3.576 2.21 5.344 0.452 1.045 0.804 2.119 1.306 3.144 0.070 0.161 0.211 0.462 0.352 0.573 0.331 0.261 1.256 0.321 1.728 0.502 0.030 0.191 0.060 0.382 0.060 0.573 0 0.090-0.010 0.171-0.010 0.261-1.276 0-2.551-0.161-3.827-0.161-1.316 0-2.632 0.11-3.948 0.151 0-0.261 0.010-0.522 0.040-0.783l1.316-0.281c0.271-0.060 0.804-0.131 0.804-0.502 0-0.362-1.296-3.345-1.456-3.757l-4.52-0.020c-0.261 0.583-1.276 3.214-1.276 3.596 0 0.773 1.477 0.804 2.049 0.884 0.010 0.191 0.010 0.382 0.010 0.583 0 0.090-0.010 0.181-0.020 0.271-1.165 0-2.34-0.201-3.506-0.201-0.141 0-0.342 0.060-0.482 0.080-0.633 0.11-1.256 0.141-1.888 0.141z"></path>
</svg>
