<!-- Generated by IcoMoon.io -->
<svg version="1.1" xmlns="http://www.w3.org/2000/svg" width="19" height="18" viewBox="0 0 19 18">
<title>image</title>
<path d="M6.429 5.786c0 1.065-0.864 1.929-1.929 1.929s-1.929-0.864-1.929-1.929 0.864-1.929 1.929-1.929 1.929 0.864 1.929 1.929zM16.714 9.643v4.5h-14.143v-1.929l3.214-3.214 1.607 1.607 5.143-5.143zM17.679 2.571h-16.071c-0.171 0-0.321 0.151-0.321 0.321v12.214c0 0.171 0.151 0.321 0.321 0.321h16.071c0.171 0 0.321-0.151 0.321-0.321v-12.214c0-0.171-0.151-0.321-0.321-0.321zM19.286 2.893v12.214c0 0.884-0.723 1.607-1.607 1.607h-16.071c-0.884 0-1.607-0.723-1.607-1.607v-12.214c0-0.884 0.723-1.607 1.607-1.607h16.071c0.884 0 1.607 0.723 1.607 1.607z"></path>
</svg>
