<!-- Generated by IcoMoon.io -->
<svg version="1.1" xmlns="http://www.w3.org/2000/svg" width="18" height="18" viewBox="0 0 18 18">
<title>indent</title>
<path d="M3.536 8.357c0 0.080-0.030 0.171-0.090 0.231l-2.893 2.893c-0.060 0.060-0.151 0.090-0.231 0.090-0.171 0-0.321-0.151-0.321-0.321v-5.786c0-0.171 0.151-0.321 0.321-0.321 0.080 0 0.171 0.030 0.231 0.090l2.893 2.893c0.060 0.060 0.090 0.151 0.090 0.231zM18 13.179v1.929c0 0.171-0.151 0.321-0.321 0.321h-17.357c-0.171 0-0.321-0.151-0.321-0.321v-1.929c0-0.171 0.151-0.321 0.321-0.321h17.357c0.171 0 0.321 0.151 0.321 0.321zM18 9.321v1.929c0 0.171-0.151 0.321-0.321 0.321h-10.929c-0.171 0-0.321-0.151-0.321-0.321v-1.929c0-0.171 0.151-0.321 0.321-0.321h10.929c0.171 0 0.321 0.151 0.321 0.321zM18 5.464v1.929c0 0.171-0.151 0.321-0.321 0.321h-10.929c-0.171 0-0.321-0.151-0.321-0.321v-1.929c0-0.171 0.151-0.321 0.321-0.321h10.929c0.171 0 0.321 0.151 0.321 0.321zM18 1.607v1.929c0 0.171-0.151 0.321-0.321 0.321h-17.357c-0.171 0-0.321-0.151-0.321-0.321v-1.929c0-0.171 0.151-0.321 0.321-0.321h17.357c0.171 0 0.321 0.151 0.321 0.321z"></path>
</svg>
