<!-- Generated by IcoMoon.io -->
<svg version="1.1" xmlns="http://www.w3.org/2000/svg" width="10" height="18" viewBox="0 0 10 18">
<title>italic</title>
<path d="M0 16.694l0.171-0.854c0.643-0.201 1.336-0.281 1.939-0.593 0.231-0.291 0.342-0.663 0.412-1.015 0.131-0.683 2.32-10.537 2.29-11.34v-0.251c-0.552-0.301-1.225-0.221-1.828-0.321l0.191-1.035c1.296 0.060 2.612 0.161 3.917 0.161 1.065 0 2.129-0.1 3.194-0.161-0.040 0.301-0.11 0.603-0.191 0.894-0.693 0.241-1.426 0.352-2.109 0.623-0.221 0.542-0.271 1.135-0.372 1.708-0.482 2.602-1.125 5.203-1.657 7.785-0.1 0.482-0.593 2.481-0.552 2.903l0.010 0.181c0.613 0.141 1.235 0.211 1.858 0.311-0.020 0.331-0.080 0.663-0.161 0.994-0.221 0-0.432 0.030-0.653 0.030-0.573 0-1.165-0.191-1.738-0.201-0.693-0.010-1.386-0.020-2.069-0.020-0.894 0-1.768 0.151-2.652 0.201z"></path>
</svg>
