<!-- Generated by IcoMoon.io -->
<svg version="1.1" xmlns="http://www.w3.org/2000/svg" width="18" height="18" viewBox="0 0 18 18">
<title>list</title>
<path d="M2.571 13.179v1.929c0 0.171-0.151 0.321-0.321 0.321h-1.929c-0.171 0-0.321-0.151-0.321-0.321v-1.929c0-0.171 0.151-0.321 0.321-0.321h1.929c0.171 0 0.321 0.151 0.321 0.321zM2.571 9.321v1.929c0 0.171-0.151 0.321-0.321 0.321h-1.929c-0.171 0-0.321-0.151-0.321-0.321v-1.929c0-0.171 0.151-0.321 0.321-0.321h1.929c0.171 0 0.321 0.151 0.321 0.321zM2.571 5.464v1.929c0 0.171-0.151 0.321-0.321 0.321h-1.929c-0.171 0-0.321-0.151-0.321-0.321v-1.929c0-0.171 0.151-0.321 0.321-0.321h1.929c0.171 0 0.321 0.151 0.321 0.321zM18 13.179v1.929c0 0.171-0.151 0.321-0.321 0.321h-13.5c-0.171 0-0.321-0.151-0.321-0.321v-1.929c0-0.171 0.151-0.321 0.321-0.321h13.5c0.171 0 0.321 0.151 0.321 0.321zM2.571 1.607v1.929c0 0.171-0.151 0.321-0.321 0.321h-1.929c-0.171 0-0.321-0.151-0.321-0.321v-1.929c0-0.171 0.151-0.321 0.321-0.321h1.929c0.171 0 0.321 0.151 0.321 0.321zM18 9.321v1.929c0 0.171-0.151 0.321-0.321 0.321h-13.5c-0.171 0-0.321-0.151-0.321-0.321v-1.929c0-0.171 0.151-0.321 0.321-0.321h13.5c0.171 0 0.321 0.151 0.321 0.321zM18 5.464v1.929c0 0.171-0.151 0.321-0.321 0.321h-13.5c-0.171 0-0.321-0.151-0.321-0.321v-1.929c0-0.171 0.151-0.321 0.321-0.321h13.5c0.171 0 0.321 0.151 0.321 0.321zM18 1.607v1.929c0 0.171-0.151 0.321-0.321 0.321h-13.5c-0.171 0-0.321-0.151-0.321-0.321v-1.929c0-0.171 0.151-0.321 0.321-0.321h13.5c0.171 0 0.321 0.151 0.321 0.321z"></path>
</svg>
