<!-- Generated by IcoMoon.io -->
<svg version="1.1" xmlns="http://www.w3.org/2000/svg" width="18" height="18" viewBox="0 0 18 18">
<title>list-alt</title>
<path d="M3.857 11.893v0.643c0 0.171-0.151 0.321-0.321 0.321h-0.643c-0.171 0-0.321-0.151-0.321-0.321v-0.643c0-0.171 0.151-0.321 0.321-0.321h0.643c0.171 0 0.321 0.151 0.321 0.321zM3.857 9.321v0.643c0 0.171-0.151 0.321-0.321 0.321h-0.643c-0.171 0-0.321-0.151-0.321-0.321v-0.643c0-0.171 0.151-0.321 0.321-0.321h0.643c0.171 0 0.321 0.151 0.321 0.321zM3.857 6.75v0.643c0 0.171-0.151 0.321-0.321 0.321h-0.643c-0.171 0-0.321-0.151-0.321-0.321v-0.643c0-0.171 0.151-0.321 0.321-0.321h0.643c0.171 0 0.321 0.151 0.321 0.321zM15.429 11.893v0.643c0 0.171-0.151 0.321-0.321 0.321h-9.643c-0.171 0-0.321-0.151-0.321-0.321v-0.643c0-0.171 0.151-0.321 0.321-0.321h9.643c0.171 0 0.321 0.151 0.321 0.321zM15.429 9.321v0.643c0 0.171-0.151 0.321-0.321 0.321h-9.643c-0.171 0-0.321-0.151-0.321-0.321v-0.643c0-0.171 0.151-0.321 0.321-0.321h9.643c0.171 0 0.321 0.151 0.321 0.321zM15.429 6.75v0.643c0 0.171-0.151 0.321-0.321 0.321h-9.643c-0.171 0-0.321-0.151-0.321-0.321v-0.643c0-0.171 0.151-0.321 0.321-0.321h9.643c0.171 0 0.321 0.151 0.321 0.321zM16.714 13.821v-8.357c0-0.171-0.151-0.321-0.321-0.321h-14.786c-0.171 0-0.321 0.151-0.321 0.321v8.357c0 0.171 0.151 0.321 0.321 0.321h14.786c0.171 0 0.321-0.151 0.321-0.321zM18 2.893v10.929c0 0.884-0.723 1.607-1.607 1.607h-14.786c-0.884 0-1.607-0.723-1.607-1.607v-10.929c0-0.884 0.723-1.607 1.607-1.607h14.786c0.884 0 1.607 0.723 1.607 1.607z"></path>
</svg>
