<!-- Generated by IcoMoon.io -->
<svg version="1.1" xmlns="http://www.w3.org/2000/svg" width="15" height="18" viewBox="0 0 15 18">
<title>text-width</title>
<path d="M0.814 1.296l0.542 0.271c0.070 0.030 1.908 0.050 2.119 0.050 0.884 0 1.768-0.040 2.652-0.040 2.662 0 5.354-0.060 8.016 0.030 0.221 0.010 0.432-0.131 0.563-0.311l0.422-0.010c0.090 0 0.191 0.010 0.281 0.010 0.020 1.125 0.020 2.25 0.020 3.375 0 0.362 0.010 0.743-0.050 1.095-0.221 0.080-0.452 0.151-0.683 0.181-0.231-0.402-0.392-0.844-0.542-1.286-0.070-0.201-0.321-1.557-0.331-1.577-0.070-0.090-0.161-0.151-0.271-0.191-0.080-0.030-0.563-0.020-0.663-0.020-1.235 0-2.662-0.070-3.877 0.070-0.050 0.442-0.090 0.914-0.080 1.366l0.010 1.527v-0.522c0.010 1.637 0.030 3.265 0.030 4.892 0 0.773-0.121 1.587 0.1 2.33 0.763 0.392 1.667 0.452 2.451 0.804 0.020 0.161 0.050 0.331 0.050 0.502 0 0.090-0.010 0.191-0.030 0.291l-0.342 0.010c-1.426 0.040-2.833-0.181-4.269-0.181-1.015 0-2.029 0.181-3.044 0.181-0.010-0.171-0.030-0.352-0.030-0.522v-0.090c0.382-0.613 1.758-0.623 2.391-0.994 0.251-0.563 0.181-5.314 0.181-6.198 0-0.141-0.050-0.291-0.050-0.442 0-0.412 0.070-2.772-0.080-2.943-0.141-0.151-1.456-0.121-1.627-0.121-0.422 0-2.782 0.221-3.023 0.382-0.472 0.311-0.482 2.33-1.085 2.381-0.181-0.11-0.432-0.271-0.563-0.442v-3.847zM13.158 14.173c0.352 0 1.688 1.195 1.959 1.406 0.151 0.121 0.261 0.291 0.261 0.492s-0.11 0.372-0.261 0.492c-0.271 0.211-1.607 1.406-1.959 1.406-0.462 0-0.301-1.075-0.301-1.256h-10.286c0 0.181 0.161 1.256-0.301 1.256-0.352 0-1.688-1.195-1.959-1.406-0.151-0.121-0.261-0.291-0.261-0.492s0.11-0.372 0.261-0.492c0.271-0.211 1.607-1.406 1.959-1.406 0.462 0 0.301 1.075 0.301 1.256h10.286c0-0.181-0.161-1.256 0.301-1.256z"></path>
</svg>
