<!-- Generated by IcoMoon.io -->
<svg version="1.1" xmlns="http://www.w3.org/2000/svg" width="18" height="18" viewBox="0 0 18 18">
<title>text-height</title>
<path d="M17.518 14.143c0.442 0 0.583 0.281 0.311 0.633l-1.266 1.627c-0.271 0.352-0.713 0.352-0.984 0l-1.266-1.627c-0.271-0.352-0.131-0.633 0.311-0.633h0.804v-10.286h-0.804c-0.442 0-0.583-0.281-0.311-0.633l1.266-1.627c0.271-0.352 0.713-0.352 0.984 0l1.266 1.627c0.271 0.352 0.131 0.633-0.311 0.633h-0.804v10.286h0.804zM0.814 1.296l0.542 0.271c0.070 0.030 1.908 0.050 2.119 0.050 0.884 0 1.768-0.040 2.652-0.040 0.723 0 1.436 0.010 2.16 0.010h2.943c0.402 0 0.633 0.090 0.904-0.291l0.422-0.010c0.090 0 0.191 0.010 0.281 0.010 0.020 1.125 0.020 2.25 0.020 3.375 0 0.352 0.010 0.743-0.050 1.095-0.221 0.080-0.452 0.151-0.683 0.181-0.231-0.402-0.392-0.844-0.542-1.286-0.070-0.201-0.311-1.557-0.331-1.577-0.211-0.261-0.442-0.211-0.753-0.211-0.914 0-1.868-0.040-2.772 0.070-0.050 0.442-0.090 0.914-0.080 1.366 0.010 2.823 0.040 5.645 0.040 8.468 0 0.773-0.121 1.587 0.1 2.33 0.763 0.392 1.667 0.452 2.451 0.804 0.020 0.161 0.050 0.331 0.050 0.502 0 0.090-0.010 0.191-0.030 0.291l-0.342 0.010c-1.426 0.040-2.833-0.181-4.269-0.181-1.015 0-2.029 0.181-3.044 0.181-0.010-0.171-0.030-0.352-0.030-0.522v-0.090c0.382-0.613 1.758-0.623 2.391-0.994 0.221-0.492 0.191-3.214 0.191-3.847 0-2.029-0.060-4.058-0.060-6.087v-1.175c0-0.181 0.040-0.904-0.080-1.045-0.141-0.151-1.456-0.121-1.627-0.121-0.372 0-1.446 0.171-1.738 0.382-0.482 0.331-0.482 2.34-1.085 2.381-0.181-0.11-0.432-0.271-0.563-0.442v-3.847z"></path>
</svg>
