<!-- Generated by IcoMoon.io -->
<svg version="1.1" xmlns="http://www.w3.org/2000/svg" width="17" height="18" viewBox="0 0 17 18">
<title>th-large</title>
<path d="M7.714 10.286v3.857c0 0.703-0.583 1.286-1.286 1.286h-5.143c-0.703 0-1.286-0.583-1.286-1.286v-3.857c0-0.703 0.583-1.286 1.286-1.286h5.143c0.703 0 1.286 0.583 1.286 1.286zM7.714 2.571v3.857c0 0.703-0.583 1.286-1.286 1.286h-5.143c-0.703 0-1.286-0.583-1.286-1.286v-3.857c0-0.703 0.583-1.286 1.286-1.286h5.143c0.703 0 1.286 0.583 1.286 1.286zM16.714 10.286v3.857c0 0.703-0.583 1.286-1.286 1.286h-5.143c-0.703 0-1.286-0.583-1.286-1.286v-3.857c0-0.703 0.583-1.286 1.286-1.286h5.143c0.703 0 1.286 0.583 1.286 1.286zM16.714 2.571v3.857c0 0.703-0.583 1.286-1.286 1.286h-5.143c-0.703 0-1.286-0.583-1.286-1.286v-3.857c0-0.703 0.583-1.286 1.286-1.286h5.143c0.703 0 1.286 0.583 1.286 1.286z"></path>
</svg>
