<!-- Generated by IcoMoon.io -->
<svg version="1.1" xmlns="http://www.w3.org/2000/svg" width="18" height="18" viewBox="0 0 18 18">
<title>th-list</title>
<path d="M5.143 12.536v1.929c0 0.532-0.432 0.964-0.964 0.964h-3.214c-0.532 0-0.964-0.432-0.964-0.964v-1.929c0-0.532 0.432-0.964 0.964-0.964h3.214c0.532 0 0.964 0.432 0.964 0.964zM5.143 7.393v1.929c0 0.532-0.432 0.964-0.964 0.964h-3.214c-0.532 0-0.964-0.432-0.964-0.964v-1.929c0-0.532 0.432-0.964 0.964-0.964h3.214c0.532 0 0.964 0.432 0.964 0.964zM18 12.536v1.929c0 0.532-0.432 0.964-0.964 0.964h-9.643c-0.532 0-0.964-0.432-0.964-0.964v-1.929c0-0.532 0.432-0.964 0.964-0.964h9.643c0.532 0 0.964 0.432 0.964 0.964zM5.143 2.25v1.929c0 0.532-0.432 0.964-0.964 0.964h-3.214c-0.532 0-0.964-0.432-0.964-0.964v-1.929c0-0.532 0.432-0.964 0.964-0.964h3.214c0.532 0 0.964 0.432 0.964 0.964zM18 7.393v1.929c0 0.532-0.432 0.964-0.964 0.964h-9.643c-0.532 0-0.964-0.432-0.964-0.964v-1.929c0-0.532 0.432-0.964 0.964-0.964h9.643c0.532 0 0.964 0.432 0.964 0.964zM18 2.25v1.929c0 0.532-0.432 0.964-0.964 0.964h-9.643c-0.532 0-0.964-0.432-0.964-0.964v-1.929c0-0.532 0.432-0.964 0.964-0.964h9.643c0.532 0 0.964 0.432 0.964 0.964z"></path>
</svg>
