<!-- Generated by IcoMoon.io -->
<svg version="1.1" xmlns="http://www.w3.org/2000/svg" width="18" height="18" viewBox="0 0 18 18">
<title>video-camera</title>
<path d="M18 3.536v10.929c0 0.261-0.161 0.492-0.392 0.593-0.080 0.030-0.171 0.050-0.251 0.050-0.171 0-0.331-0.060-0.452-0.191l-4.048-4.048v1.667c0 1.597-1.296 2.893-2.893 2.893h-7.071c-1.597 0-2.893-1.296-2.893-2.893v-7.071c0-1.597 1.296-2.893 2.893-2.893h7.071c1.597 0 2.893 1.296 2.893 2.893v1.657l4.048-4.038c0.121-0.131 0.281-0.191 0.452-0.191 0.080 0 0.171 0.020 0.251 0.050 0.231 0.1 0.392 0.331 0.392 0.593z"></path>
</svg>
