<!-- Generated by IcoMoon.io -->
<svg version="1.1" xmlns="http://www.w3.org/2000/svg" width="18" height="18" viewBox="0 0 18 18">
<title>fast-forward</title>
<path d="M0.452 16.584c-0.251 0.251-0.452 0.161-0.452-0.191v-14.786c0-0.352 0.201-0.442 0.452-0.191l7.132 7.132c0.060 0.060 0.1 0.121 0.131 0.191v-7.132c0-0.352 0.201-0.442 0.452-0.191l7.132 7.132c0.060 0.060 0.1 0.121 0.131 0.191v-6.81c0-0.352 0.291-0.643 0.643-0.643h1.286c0.352 0 0.643 0.291 0.643 0.643v14.143c0 0.352-0.291 0.643-0.643 0.643h-1.286c-0.352 0-0.643-0.291-0.643-0.643v-6.81c-0.030 0.070-0.070 0.131-0.131 0.191l-7.132 7.132c-0.251 0.251-0.452 0.161-0.452-0.191v-7.132c-0.030 0.070-0.070 0.131-0.131 0.191z"></path>
</svg>
