<!-- Generated by IcoMoon.io -->
<svg version="1.1" xmlns="http://www.w3.org/2000/svg" width="17" height="18" viewBox="0 0 17 18">
<title>headphones</title>
<path d="M16.714 8.9c0 1.095-0.201 2.16-0.603 3.154l-0.201 0.492-1.858 0.331c-0.291 1.095-1.286 1.908-2.481 1.908v0.321c0 0.181-0.141 0.321-0.321 0.321h-0.643c-0.181 0-0.321-0.141-0.321-0.321v-5.786c0-0.181 0.141-0.321 0.321-0.321h0.643c0.181 0 0.321 0.141 0.321 0.321v0.321c0.964 0 1.798 0.532 2.24 1.316l0.683-0.121c0.191-0.623 0.291-1.266 0.291-1.939 0-3.033-3.003-5.685-6.429-5.685s-6.429 2.652-6.429 5.685c0 0.673 0.1 1.316 0.291 1.939l0.683 0.121c0.442-0.783 1.276-1.316 2.24-1.316v-0.321c0-0.181 0.141-0.321 0.321-0.321h0.643c0.181 0 0.321 0.141 0.321 0.321v5.786c0 0.181-0.141 0.321-0.321 0.321h-0.643c-0.181 0-0.321-0.141-0.321-0.321v-0.321c-1.195 0-2.19-0.814-2.481-1.908l-1.858-0.331-0.201-0.492c-0.402-0.994-0.603-2.059-0.603-3.154 0-4.128 3.827-7.614 8.357-7.614s8.357 3.485 8.357 7.614z"></path>
</svg>
