<!-- Generated by IcoMoon.io -->
<svg version="1.1" xmlns="http://www.w3.org/2000/svg" width="15" height="18" viewBox="0 0 15 18">
<title>pause</title>
<path d="M15.429 1.929v14.143c0 0.352-0.291 0.643-0.643 0.643h-5.143c-0.352 0-0.643-0.291-0.643-0.643v-14.143c0-0.352 0.291-0.643 0.643-0.643h5.143c0.352 0 0.643 0.291 0.643 0.643zM6.429 1.929v14.143c0 0.352-0.291 0.643-0.643 0.643h-5.143c-0.352 0-0.643-0.291-0.643-0.643v-14.143c0-0.352 0.291-0.643 0.643-0.643h5.143c0.352 0 0.643 0.291 0.643 0.643z"></path>
</svg>
