<!-- Generated by IcoMoon.io -->
<svg version="1.1" xmlns="http://www.w3.org/2000/svg" width="15" height="18" viewBox="0 0 15 18">
<title>play-circle</title>
<path d="M7.714 1.286c4.259 0 7.714 3.455 7.714 7.714s-3.455 7.714-7.714 7.714-7.714-3.455-7.714-7.714 3.455-7.714 7.714-7.714zM11.571 9.552c0.201-0.11 0.321-0.321 0.321-0.552s-0.121-0.442-0.321-0.552l-5.464-3.214c-0.191-0.121-0.442-0.121-0.643-0.010-0.201 0.121-0.321 0.331-0.321 0.563v6.429c0 0.231 0.121 0.442 0.321 0.563 0.1 0.050 0.211 0.080 0.321 0.080s0.221-0.030 0.321-0.090z"></path>
</svg>
