<!-- Generated by IcoMoon.io -->
<svg version="1.1" xmlns="http://www.w3.org/2000/svg" width="15" height="18" viewBox="0 0 15 18">
<title>refresh</title>
<path d="M15.177 10.607c0 0.020 0 0.050-0.010 0.070-0.854 3.556-3.787 6.037-7.493 6.037-1.959 0-3.857-0.773-5.283-2.129l-1.296 1.296c-0.121 0.121-0.281 0.191-0.452 0.191-0.352 0-0.643-0.291-0.643-0.643v-4.5c0-0.352 0.291-0.643 0.643-0.643h4.5c0.352 0 0.643 0.291 0.643 0.643 0 0.171-0.070 0.331-0.191 0.452l-1.376 1.376c0.944 0.884 2.2 1.386 3.496 1.386 1.788 0 3.445-0.924 4.379-2.451 0.241-0.392 0.362-0.773 0.532-1.175 0.050-0.141 0.151-0.231 0.301-0.231h1.929c0.181 0 0.321 0.151 0.321 0.321zM15.429 2.571v4.5c0 0.352-0.291 0.643-0.643 0.643h-4.5c-0.352 0-0.643-0.291-0.643-0.643 0-0.171 0.070-0.331 0.191-0.452l1.386-1.386c-0.954-0.884-2.21-1.376-3.506-1.376-1.788 0-3.445 0.924-4.379 2.451-0.241 0.392-0.362 0.773-0.532 1.175-0.050 0.141-0.151 0.231-0.301 0.231h-1.999c-0.181 0-0.321-0.151-0.321-0.321v-0.070c0.864-3.566 3.827-6.037 7.533-6.037 1.969 0 3.887 0.783 5.314 2.129l1.306-1.296c0.121-0.121 0.281-0.191 0.452-0.191 0.352 0 0.643 0.291 0.643 0.643z"></path>
</svg>
