<!-- Generated by IcoMoon.io -->
<svg version="1.1" xmlns="http://www.w3.org/2000/svg" width="10" height="18" viewBox="0 0 10 18">
<title>step-backward</title>
<path d="M9.834 1.416c0.251-0.251 0.452-0.161 0.452 0.191v14.786c0 0.352-0.201 0.442-0.452 0.191l-7.132-7.132c-0.060-0.060-0.1-0.121-0.131-0.191v6.81c0 0.352-0.291 0.643-0.643 0.643h-1.286c-0.352 0-0.643-0.291-0.643-0.643v-14.143c0-0.352 0.291-0.643 0.643-0.643h1.286c0.352 0 0.643 0.291 0.643 0.643v6.81c0.030-0.070 0.070-0.131 0.131-0.191z"></path>
</svg>
