<!-- Generated by IcoMoon.io -->
<svg version="1.1" xmlns="http://www.w3.org/2000/svg" width="17" height="18" viewBox="0 0 17 18">
<title>volume-up</title>
<path d="M7.714 3.536v10.929c0 0.352-0.291 0.643-0.643 0.643-0.171 0-0.331-0.070-0.452-0.191l-3.345-3.345h-2.632c-0.352 0-0.643-0.291-0.643-0.643v-3.857c0-0.352 0.291-0.643 0.643-0.643h2.632l3.345-3.345c0.121-0.121 0.281-0.191 0.452-0.191 0.352 0 0.643 0.291 0.643 0.643zM11.571 9c0 1.004-0.613 1.979-1.557 2.36-0.080 0.040-0.171 0.050-0.251 0.050-0.352 0-0.643-0.281-0.643-0.643 0-0.763 1.165-0.552 1.165-1.768s-1.165-1.004-1.165-1.768c0-0.362 0.291-0.643 0.643-0.643 0.080 0 0.171 0.010 0.251 0.050 0.944 0.372 1.557 1.356 1.557 2.36zM14.143 9c0 2.039-1.225 3.938-3.114 4.731-0.080 0.030-0.171 0.050-0.251 0.050-0.362 0-0.653-0.291-0.653-0.643 0-0.281 0.161-0.472 0.392-0.593 0.271-0.141 0.522-0.261 0.763-0.442 0.994-0.723 1.577-1.878 1.577-3.104s-0.583-2.381-1.577-3.104c-0.241-0.181-0.492-0.301-0.763-0.442-0.231-0.121-0.392-0.311-0.392-0.593 0-0.352 0.291-0.643 0.643-0.643 0.090 0 0.181 0.020 0.261 0.050 1.888 0.794 3.114 2.692 3.114 4.731zM16.714 9c0 3.084-1.838 5.876-4.671 7.092-0.080 0.030-0.171 0.050-0.261 0.050-0.352 0-0.643-0.291-0.643-0.643 0-0.291 0.151-0.452 0.392-0.593 0.141-0.080 0.301-0.131 0.452-0.211 0.281-0.151 0.563-0.321 0.824-0.512 1.647-1.215 2.622-3.134 2.622-5.183s-0.974-3.968-2.622-5.183c-0.261-0.191-0.542-0.362-0.824-0.512-0.151-0.080-0.311-0.131-0.452-0.211-0.241-0.141-0.392-0.301-0.392-0.593 0-0.352 0.291-0.643 0.643-0.643 0.090 0 0.181 0.020 0.261 0.050 2.833 1.215 4.671 4.008 4.671 7.092z"></path>
</svg>
