<!-- Generated by IcoMoon.io -->
<svg version="1.1" xmlns="http://www.w3.org/2000/svg" width="12" height="18" viewBox="0 0 12 18">
<title>volume-down</title>
<path d="M7.714 3.536v10.929c0 0.352-0.291 0.643-0.643 0.643-0.171 0-0.331-0.070-0.452-0.191l-3.345-3.345h-2.632c-0.352 0-0.643-0.291-0.643-0.643v-3.857c0-0.352 0.291-0.643 0.643-0.643h2.632l3.345-3.345c0.121-0.121 0.281-0.191 0.452-0.191 0.352 0 0.643 0.291 0.643 0.643zM11.571 9c0 1.004-0.613 1.979-1.557 2.36-0.080 0.040-0.171 0.050-0.251 0.050-0.352 0-0.643-0.281-0.643-0.643 0-0.763 1.165-0.552 1.165-1.768s-1.165-1.004-1.165-1.768c0-0.362 0.291-0.643 0.643-0.643 0.080 0 0.171 0.010 0.251 0.050 0.944 0.372 1.557 1.356 1.557 2.36z"></path>
</svg>
