<!-- Generated by IcoMoon.io -->
<svg version="1.1" xmlns="http://www.w3.org/2000/svg" width="14" height="18" viewBox="0 0 14 18">
<title>android</title>
<path d="M4.952 4.852c0.221 0 0.392-0.181 0.392-0.392s-0.171-0.392-0.392-0.392c-0.211 0-0.382 0.181-0.382 0.392s0.171 0.392 0.382 0.392zM9.191 4.852c0.211 0 0.382-0.181 0.382-0.392s-0.171-0.392-0.382-0.392c-0.221 0-0.392 0.181-0.392 0.392s0.171 0.392 0.392 0.392zM1.035 6.7c0.563 0 1.025 0.462 1.025 1.025v4.319c0 0.573-0.452 1.035-1.025 1.035s-1.035-0.462-1.035-1.035v-4.319c0-0.563 0.462-1.025 1.035-1.025zM11.682 6.891v6.69c0 0.613-0.492 1.105-1.095 1.105h-0.753v2.28c0 0.573-0.462 1.035-1.035 1.035s-1.035-0.462-1.035-1.035v-2.28h-1.386v2.28c0 0.573-0.462 1.035-1.035 1.035-0.563 0-1.025-0.462-1.025-1.035l-0.010-2.28h-0.743c-0.613 0-1.105-0.492-1.105-1.105v-6.69h9.221zM9.352 2.823c1.406 0.723 2.36 2.109 2.36 3.706h-9.291c0-1.597 0.954-2.983 2.371-3.706l-0.713-1.316c-0.040-0.070-0.020-0.161 0.050-0.201 0.070-0.030 0.161-0.010 0.201 0.060l0.723 1.326c0.613-0.271 1.296-0.422 2.019-0.422s1.406 0.151 2.019 0.422l0.723-1.326c0.040-0.070 0.131-0.090 0.201-0.060 0.070 0.040 0.090 0.131 0.050 0.201zM14.143 7.724v4.319c0 0.573-0.462 1.035-1.035 1.035-0.563 0-1.025-0.462-1.025-1.035v-4.319c0-0.573 0.462-1.025 1.025-1.025 0.573 0 1.035 0.452 1.035 1.025z"></path>
</svg>
