<!-- Generated by IcoMoon.io -->
<svg version="1.1" xmlns="http://www.w3.org/2000/svg" width="14" height="18" viewBox="0 0 14 18">
<title>apple</title>
<path d="M13.992 12.204c-0.251 0.794-0.653 1.637-1.235 2.511-0.864 1.316-1.728 1.969-2.581 1.969-0.342 0-0.804-0.11-1.406-0.321-0.593-0.221-1.105-0.321-1.517-0.321-0.402 0-0.884 0.11-1.426 0.331-0.552 0.231-0.994 0.342-1.326 0.342-1.035 0-2.029-0.874-3.023-2.602-0.974-1.728-1.477-3.405-1.477-5.052 0-1.537 0.382-2.782 1.135-3.757 0.753-0.964 1.698-1.446 2.853-1.446 0.492 0 1.075 0.1 1.778 0.301 0.693 0.201 1.155 0.301 1.386 0.301 0.291 0 0.773-0.11 1.436-0.342 0.663-0.221 1.246-0.342 1.738-0.342 0.804 0 1.517 0.221 2.14 0.653 0.352 0.241 0.703 0.583 1.045 1.004-0.522 0.442-0.904 0.834-1.145 1.185-0.432 0.623-0.653 1.316-0.653 2.079 0 0.824 0.231 1.577 0.693 2.24s0.994 1.085 1.587 1.266zM10.215 0.422c0 0.412-0.1 0.874-0.291 1.366-0.201 0.502-0.512 0.964-0.934 1.386-0.362 0.362-0.723 0.603-1.085 0.723-0.231 0.070-0.573 0.131-1.045 0.171 0.020-0.994 0.281-1.858 0.783-2.581s1.346-1.215 2.511-1.487c0.020 0.090 0.040 0.161 0.050 0.221 0 0.070 0.010 0.131 0.010 0.201z"></path>
</svg>
