<!-- Generated by IcoMoon.io -->
<svg version="1.1" xmlns="http://www.w3.org/2000/svg" width="15" height="18" viewBox="0 0 15 18">
<title>facebook-square</title>
<path d="M12.536 1.286c1.597 0 2.893 1.296 2.893 2.893v9.643c0 1.597-1.296 2.893-2.893 2.893h-1.888v-5.977h1.999l0.301-2.33h-2.3v-1.487c0-0.673 0.181-1.125 1.155-1.125l1.225-0.010v-2.079c-0.211-0.030-0.944-0.090-1.788-0.090-1.778 0-3.003 1.085-3.003 3.074v1.718h-2.009v2.33h2.009v5.977h-5.344c-1.597 0-2.893-1.296-2.893-2.893v-9.643c0-1.597 1.296-2.893 2.893-2.893h9.643z"></path>
</svg>
