<!-- Generated by IcoMoon.io -->
<svg version="1.1" xmlns="http://www.w3.org/2000/svg" width="18" height="18" viewBox="0 0 18 18">
<title>git</title>
<path d="M5.977 15.208c0-0.884-0.974-1.004-1.657-1.004-0.713 0-1.587 0.151-1.587 1.045 0 0.904 1.035 1.015 1.728 1.015 0.733 0 1.517-0.181 1.517-1.055zM5.384 7.624c0-0.753-0.362-1.436-1.195-1.436-0.924 0-1.246 0.613-1.246 1.456 0 0.834 0.362 1.356 1.246 1.356 0.874 0 1.195-0.563 1.195-1.376zM8.086 4.369v2.029c-0.261 0.090-0.522 0.161-0.794 0.221 0.1 0.271 0.161 0.552 0.161 0.844 0 1.698-1.045 2.993-2.712 3.305-0.502 0.1-0.794 0.311-0.794 0.854 0 1.537 4.058 0.492 4.058 3.325 0 2.3-1.557 3.054-3.646 3.054-1.718 0-3.676-0.573-3.676-2.642 0-1.205 0.733-1.898 1.828-2.26v-0.040c-0.462-0.281-0.673-0.723-0.673-1.266 0-0.512 0.11-1.145 0.633-1.376v-0.040c-1.015-0.342-1.677-1.738-1.677-2.752 0-1.878 1.456-3.254 3.315-3.254 0.623 0 1.246 0.161 1.788 0.472 0.753 0 1.497-0.201 2.19-0.472zM11.28 13.219h-2.23c0.040-0.452 0.040-0.894 0.040-1.346v-6.117c0-0.432 0.010-0.864-0.040-1.286h2.23c-0.050 0.412-0.040 0.834-0.040 1.246v6.157c0 0.452 0 0.894 0.040 1.346zM17.317 10.989v1.969c-0.532 0.291-1.145 0.392-1.748 0.392-2.15 0-2.401-1.698-2.401-3.445v-3.526h0.020v-0.040c-0.131 0-0.251-0.020-0.372-0.020-0.201 0-0.402 0.030-0.593 0.060v-1.908h0.964v-0.763c0-0.301-0.010-0.603-0.060-0.894h2.28c-0.080 0.552-0.060 1.105-0.060 1.657h1.718v1.908c-0.291 0-0.583-0.040-0.864-0.040h-0.854v3.666c0 0.593 0.131 1.316 0.874 1.316 0.392 0 0.773-0.11 1.095-0.331zM11.531 1.477c0 0.753-0.583 1.456-1.356 1.456-0.794 0-1.386-0.693-1.386-1.456 0-0.773 0.583-1.477 1.386-1.477 0.794 0 1.356 0.723 1.356 1.477z"></path>
</svg>
