<!-- Generated by IcoMoon.io -->
<svg version="1.1" xmlns="http://www.w3.org/2000/svg" width="15" height="18" viewBox="0 0 15 18">
<title>paypal</title>
<path d="M15.258 6.489v0c0.131 0.603 0.1 1.296-0.040 2.049-0.653 3.315-2.853 4.46-5.675 4.46h-0.442c-0.342 0-0.623 0.251-0.683 0.593l-0.040 0.191-0.552 3.475-0.020 0.151c-0.070 0.342-0.352 0.593-0.693 0.593h-2.521c-0.281 0-0.462-0.231-0.422-0.512 0.181-1.125 0.352-2.25 0.532-3.375s0.362-2.24 0.542-3.365c0.030-0.241 0.191-0.372 0.432-0.372 0.402 0 0.804-0.010 1.316 0 0.723 0.010 1.557-0.030 2.371-0.211 1.085-0.241 2.069-0.683 2.883-1.446 0.733-0.683 1.225-1.527 1.557-2.471 0.151-0.442 0.271-0.884 0.352-1.336 0.020-0.121 0.050-0.1 0.121-0.050 0.552 0.412 0.864 0.964 0.984 1.627zM13.53 3.656c0 0.824-0.191 1.607-0.462 2.371-0.522 1.517-1.507 2.602-3.033 3.164-0.814 0.291-1.667 0.412-2.531 0.422-0.603 0.010-1.205 0-1.808 0-0.653 0-1.065 0.321-1.185 0.964-0.141 0.763-0.693 4.319-0.854 5.324-0.010 0.070-0.040 0.1-0.121 0.1h-2.963c-0.301 0-0.522-0.261-0.482-0.552l2.33-14.776c0.060-0.382 0.402-0.673 0.794-0.673h6.007c0.432 0 1.426 0.191 2.099 0.452 1.426 0.552 2.21 1.677 2.21 3.204z"></path>
</svg>
