<!-- Generated by IcoMoon.io -->
<svg version="1.1" xmlns="http://www.w3.org/2000/svg" width="18" height="18" viewBox="0 0 18 18">
<title>qq</title>
<path d="M2.712 8.096c-0.070-0.171-0.080-0.342-0.080-0.522 0-0.281 0.181-0.733 0.352-0.944-0.010-0.261 0.1-0.794 0.301-0.964 0-1.858 1.436-4.199 3.114-5.002 1.035-0.492 2.119-0.663 3.254-0.663 0.884 0 1.848 0.211 2.672 0.552 2.36 0.994 2.893 2.843 3.395 5.203l0.010 0.050c0.291 0.442 0.552 0.964 0.552 1.507 0 0.271-0.181 0.542-0.181 0.783 0 0.020 0.060 0.1 0.070 0.121 0.864 1.276 1.647 2.662 1.647 4.249 0 0.352-0.191 1.577-0.753 1.577-0.392 0-0.824-0.954-0.964-1.215-0.010-0.010-0.020-0.010-0.030-0.010l-0.050 0.040c-0.321 0.834-0.673 1.617-1.326 2.24 0.573 0.552 1.497 0.502 1.667 1.456-0.050 0.11-0.030 0.231-0.11 0.342-0.573 0.864-2.109 0.974-3.033 0.974-1.225 0-2.22-0.321-3.375-0.663-0.241-0.070-0.603-0.030-0.864-0.060-0.613 0.673-2.109 0.854-2.973 0.854-0.763 0-3.717-0.050-3.717-1.356 0-0.563 0.121-0.723 0.512-1.085 0.311-0.060 0.542-0.231 0.904-0.251 0.050 0 0.090-0.010 0.141-0.020 0.010-0.010 0.020-0.010 0.020-0.040l-0.020-0.030c-0.693-0.161-1.667-1.908-1.818-2.632l-0.050-0.030c-0.070 0-0.1 0.151-0.121 0.201-0.221 0.512-0.743 1.065-1.326 1.125h-0.010c-0.080 0-0.050-0.080-0.11-0.1-0.141-0.331-0.231-0.633-0.231-1.004 0-2.009 0.964-3.496 2.531-4.681z"></path>
</svg>
