<!-- Generated by IcoMoon.io -->
<svg version="1.1" xmlns="http://www.w3.org/2000/svg" width="15" height="18" viewBox="0 0 15 18">
<title>renren</title>
<path d="M11.381 15.77c-1.095 0.603-2.35 0.944-3.696 0.944-1.336 0-2.592-0.342-3.686-0.944 1.778-1.125 3.214-2.823 3.686-4.811 0.482 1.989 1.919 3.686 3.696 4.811zM6.408 1.426v4.872c0 3.435-1.898 6.388-4.59 7.694-1.135-1.346-1.818-3.074-1.818-4.972 0-3.817 2.772-6.981 6.408-7.594zM15.429 9.020c0 1.898-0.683 3.626-1.818 4.972-2.692-1.306-4.59-4.259-4.59-7.694v-4.872c3.636 0.613 6.408 3.777 6.408 7.594z"></path>
</svg>
