<!-- Generated by IcoMoon.io -->
<svg version="1.1" xmlns="http://www.w3.org/2000/svg" width="15" height="18" viewBox="0 0 15 18">
<title>steam-square</title>
<path d="M12.475 6.499c0-1.065-0.874-1.939-1.949-1.939-1.065 0-1.939 0.874-1.939 1.939 0 1.075 0.874 1.939 1.939 1.939 1.075 0 1.949-0.864 1.949-1.939zM6.348 12.405c0 1.105-0.884 1.989-1.989 1.989-0.763 0-1.426-0.432-1.758-1.065 0.331 0.131 0.653 0.261 0.984 0.402 0.804 0.321 1.728-0.070 2.059-0.884 0.321-0.804-0.070-1.728-0.884-2.049l-0.824-0.331c0.131-0.030 0.281-0.050 0.422-0.050 1.105 0 1.989 0.884 1.989 1.989zM15.429 4.179v9.643c0 1.597-1.296 2.893-2.893 2.893h-9.643c-1.597 0-2.893-1.296-2.893-2.893v-1.537l1.728 0.693c0.261 1.215 1.346 2.129 2.632 2.129 1.406 0 2.561-1.075 2.692-2.441l3.465-2.531c2.009 0 3.626-1.627 3.626-3.616 0-2.009-1.617-3.626-3.626-3.626-1.979 0-3.596 1.607-3.616 3.586l-2.26 3.234c-0.090-0.010-0.181-0.010-0.281-0.010-0.502 0-0.974 0.131-1.376 0.372l-2.983-1.195v-4.701c0-1.597 1.296-2.893 2.893-2.893h9.643c1.597 0 2.893 1.296 2.893 2.893zM12.948 6.519c0 1.336-1.085 2.421-2.431 2.421-1.336 0-2.421-1.085-2.421-2.421 0-1.346 1.085-2.431 2.421-2.431 1.346 0 2.431 1.085 2.431 2.431z"></path>
</svg>
