<!-- Generated by IcoMoon.io -->
<svg version="1.1" xmlns="http://www.w3.org/2000/svg" width="13" height="18" viewBox="0 0 13 18">
<title>tencent-weibo</title>
<path d="M8.458 5.746c0 1.065-0.874 1.939-1.939 1.939-0.412 0-0.794-0.131-1.115-0.352-0.362 0.392-0.763 0.884-1.155 1.467-1.637 2.461-2.33 5.364-2.029 8.628 0.020 0.291-0.191 0.542-0.472 0.573h-0.050c-0.261 0-0.492-0.201-0.522-0.472-0.392-4.4 1.004-7.513 2.24-9.352 0.452-0.673 0.904-1.215 1.326-1.657-0.11-0.241-0.161-0.502-0.161-0.773 0-1.075 0.864-1.939 1.939-1.939 1.065 0 1.939 0.864 1.939 1.939zM12.285 5.856c0 3.224-2.622 5.846-5.856 5.846-0.442 0-0.884-0.050-1.316-0.141-0.281-0.070-0.452-0.352-0.392-0.633 0.070-0.271 0.342-0.452 0.623-0.392 0.352 0.090 0.723 0.131 1.085 0.131 2.652 0 4.811-2.16 4.811-4.811s-2.16-4.811-4.811-4.811-4.811 2.16-4.811 4.811c0 0.773 0.181 1.507 0.522 2.19 0.131 0.261 0.030 0.573-0.221 0.703-0.261 0.131-0.573 0.030-0.703-0.231-0.422-0.814-0.643-1.738-0.643-2.662 0-3.234 2.632-5.856 5.856-5.856 3.234 0 5.856 2.622 5.856 5.856z"></path>
</svg>
