<!-- Generated by IcoMoon.io -->
<svg version="1.1" xmlns="http://www.w3.org/2000/svg" width="15" height="18" viewBox="0 0 15 18">
<title>tumblr-square</title>
<path d="M11.411 14.675l-0.623-1.838c-0.241 0.121-0.693 0.221-1.035 0.221-1.025 0.030-1.235-0.713-1.235-1.266v-3.998h2.581v-1.949h-2.571v-3.275h-1.888c-0.030 0-0.080 0.030-0.090 0.1-0.11 0.994-0.583 2.762-2.531 3.465v1.657h1.306v4.199c0 1.436 1.055 3.485 3.857 3.435 0.944-0.020 1.999-0.412 2.23-0.753zM15.429 4.179v9.643c0 1.597-1.296 2.893-2.893 2.893h-9.643c-1.597 0-2.893-1.296-2.893-2.893v-9.643c0-1.597 1.296-2.893 2.893-2.893h9.643c1.597 0 2.893 1.296 2.893 2.893z"></path>
</svg>
