<!-- Generated by IcoMoon.io -->
<svg version="1.1" xmlns="http://www.w3.org/2000/svg" width="21" height="18" viewBox="0 0 21 18">
<title>wechat</title>
<path d="M5.826 4.631c0-0.552-0.362-0.914-0.914-0.914-0.542 0-1.095 0.362-1.095 0.914 0 0.542 0.552 0.904 1.095 0.904 0.552 0 0.914-0.362 0.914-0.904zM13.289 9.723c0-0.362-0.362-0.723-0.914-0.723-0.362 0-0.723 0.362-0.723 0.723 0 0.372 0.362 0.733 0.723 0.733 0.552 0 0.914-0.362 0.914-0.733zM10.919 4.631c0-0.552-0.362-0.914-0.904-0.914-0.552 0-1.095 0.362-1.095 0.914 0 0.542 0.542 0.904 1.095 0.904 0.542 0 0.904-0.362 0.904-0.904zM17.297 9.723c0-0.362-0.372-0.723-0.914-0.723-0.362 0-0.723 0.362-0.723 0.723 0 0.372 0.362 0.733 0.723 0.733 0.542 0 0.914-0.362 0.914-0.733zM14.625 5.735c-0.231-0.030-0.462-0.040-0.703-0.040-3.455 0-6.188 2.581-6.188 5.756 0 0.532 0.080 1.045 0.231 1.527-0.231 0.020-0.452 0.030-0.683 0.030-0.914 0-1.637-0.181-2.551-0.362l-2.541 1.276 0.723-2.19c-1.818-1.276-2.913-2.923-2.913-4.922 0-3.465 3.275-6.188 7.282-6.188 3.576 0 6.72 2.18 7.343 5.113zM20.571 11.371c0 1.637-1.085 3.094-2.551 4.189l0.552 1.818-1.999-1.095c-0.733 0.181-1.467 0.372-2.19 0.372-3.465 0-6.188-2.371-6.188-5.283s2.722-5.283 6.188-5.283c3.275 0 6.188 2.371 6.188 5.283z"></path>
</svg>
