<!-- Generated by IcoMoon.io -->
<svg version="1.1" xmlns="http://www.w3.org/2000/svg" width="18" height="18" viewBox="0 0 18 18">
<title>weibo</title>
<path d="M6.78 12.897c0.281-0.462 0.131-0.994-0.342-1.195-0.452-0.191-1.055 0.010-1.336 0.452-0.291 0.452-0.151 0.984 0.301 1.195 0.462 0.211 1.085 0.010 1.376-0.452zM7.724 11.682c0.1-0.181 0.040-0.382-0.141-0.452-0.181-0.060-0.402 0.020-0.502 0.191-0.1 0.181-0.050 0.372 0.131 0.452 0.181 0.070 0.412-0.010 0.512-0.191zM9.472 12.757c-0.603 1.366-2.35 2.109-3.837 1.627-1.436-0.462-2.039-1.878-1.416-3.154 0.623-1.246 2.22-1.949 3.636-1.587 1.477 0.382 2.22 1.768 1.617 3.114zM12.606 11.15c-0.191-1.959-2.762-3.305-5.746-3.013-2.983 0.301-5.233 2.119-5.042 4.078s2.762 3.305 5.746 3.013c2.983-0.301 5.233-2.119 5.042-4.078zM15.7 11.19c0 2.26-3.254 5.103-8.146 5.103-3.737 0-7.554-1.808-7.554-4.791 0-1.557 0.984-3.355 2.682-5.052 2.27-2.27 4.912-3.295 5.906-2.3 0.442 0.432 0.482 1.195 0.201 2.099-0.141 0.462 0.432 0.201 0.432 0.211 1.828-0.773 3.425-0.814 4.008 0.020 0.311 0.442 0.281 1.065 0 1.788-0.131 0.331 0.040 0.382 0.291 0.462 1.035 0.321 2.18 1.095 2.18 2.461zM14.956 4.922c0.573 0.633 0.733 1.507 0.482 2.27-0.1 0.311-0.432 0.482-0.743 0.382s-0.482-0.432-0.382-0.743v0c0.121-0.382 0.040-0.804-0.241-1.115s-0.693-0.432-1.075-0.352v0c-0.321 0.070-0.643-0.131-0.703-0.452-0.070-0.321 0.131-0.633 0.452-0.703 0.783-0.171 1.637 0.070 2.21 0.713zM16.775 3.285c1.185 1.306 1.497 3.094 0.994 4.661v0c-0.121 0.362-0.502 0.563-0.864 0.442s-0.563-0.502-0.452-0.864v0c0.362-1.115 0.141-2.391-0.703-3.315-0.844-0.934-2.079-1.286-3.224-1.045-0.372 0.080-0.743-0.161-0.824-0.532s0.161-0.733 0.532-0.814v0c1.617-0.342 3.355 0.151 4.54 1.467z"></path>
</svg>
