<!-- Generated by IcoMoon.io -->
<svg version="1.1" xmlns="http://www.w3.org/2000/svg" width="18" height="18" viewBox="0 0 18 18">
<title>youtube-play</title>
<path d="M7.142 11.33l4.862-2.511-4.862-2.541v5.052zM9 2.672c3.787 0 6.298 0.181 6.298 0.181 0.352 0.040 1.125 0.040 1.808 0.763 0 0 0.552 0.542 0.713 1.788 0.191 1.456 0.181 2.913 0.181 2.913v1.366s0.010 1.456-0.181 2.913c-0.161 1.235-0.713 1.788-0.713 1.788-0.683 0.713-1.456 0.713-1.808 0.753 0 0-2.511 0.191-6.298 0.191v0c-4.681-0.040-6.117-0.181-6.117-0.181-0.402-0.070-1.306-0.050-1.989-0.763 0 0-0.552-0.552-0.713-1.788-0.191-1.456-0.181-2.913-0.181-2.913v-1.366s-0.010-1.456 0.181-2.913c0.161-1.246 0.713-1.788 0.713-1.788 0.683-0.723 1.456-0.723 1.808-0.763 0 0 2.511-0.181 6.298-0.181v0z"></path>
</svg>
